<svg width="420" height="250" viewBox="0 0 420 250" fill="none" xmlns="http://www.w3.org/2000/svg">
<g clip-path="url(#clip0_14_360)">
<rect width="420" height="250" rx="20" fill="url(#paint0_linear_14_360)"/>
<rect y="116" width="420" height="134" fill="white"/>
<g opacity="0.11">
<path d="M44.4358 217.013C44.6333 217.427 44.7591 218.058 44.8132 218.907C44.8618 219.671 44.9023 220.308 44.9348 220.818C44.978 221.497 44.8906 222.142 44.6727 222.753C44.4547 223.363 44.1488 223.937 43.7549 224.474C43.0524 225.542 41.9926 226.376 40.5755 226.978C38.5724 227.788 36.6756 228.249 34.8851 228.363C33.9526 228.508 32.9748 228.613 31.9516 228.678C30.9285 228.743 29.9107 228.893 28.8984 229.128L28.3868 229.161C21.8269 229.663 15.0485 230.095 8.05148 230.455C6.34081 230.478 4.42239 230.6 2.29621 230.821C0.175432 231.126 -1.91622 231.217 -3.97875 231.092C-6.03588 231.053 -7.9414 230.705 -9.6953 230.049C-11.3693 229.303 -12.6042 228.06 -13.3998 226.321C-13.5973 225.907 -13.7495 225.533 -13.8564 225.199C-13.9687 224.78 -14.0383 224.358 -14.0653 223.933C-14.5901 221.068 -14.8991 218.231 -14.9921 215.424C-15.0852 212.616 -15.2182 209.853 -15.3911 207.136L-16.3107 188.651L-17.3969 171.583C-17.5915 168.526 -17.7644 165.809 -17.9157 163.431C-17.9818 161.048 -18.064 158.41 -18.1625 155.518L-18.203 154.881C-18.1718 154.026 -18.1832 153.174 -18.2373 152.325C-18.206 151.471 -18.2175 150.619 -18.2715 149.77C-18.2253 147.806 -17.8617 146.12 -17.1808 144.713C-16.7503 143.406 -15.9199 142.33 -14.6895 141.485C-13.6298 140.65 -12.3325 140.184 -10.7978 140.086C-10.2009 140.048 -9.644 140.055 -9.12701 140.108C-8.53017 140.07 -7.97326 140.077 -7.45627 140.129C-6.93929 140.181 -6.45953 140.321 -6.017 140.549C-5.48921 140.771 -4.95601 141.078 -4.41741 141.47C-3.86801 142.032 -3.35312 142.724 -2.87277 143.546C-2.47227 144.459 -2.19966 145.379 -2.05496 146.308C-1.93186 146.897 -1.81148 147.443 -1.69379 147.947C-1.5761 148.451 -1.50105 148.958 -1.46862 149.468C-1.60672 149.988 -1.65956 150.503 -1.62714 151.012C-1.59471 151.522 -1.56499 151.989 -1.53797 152.413L-1.39206 154.706L1.91432 214.731L27.2537 213.374L33.2648 212.992C33.7764 212.959 34.3333 212.967 34.9355 213.013C35.5324 212.976 36.1319 212.98 36.7342 213.027C37.4217 213.068 38.0239 213.115 38.5409 213.168C39.0579 213.22 39.5776 213.315 40.1 213.452C41.0541 213.647 41.8485 214.023 42.4831 214.579C43.4751 215.369 44.126 216.18 44.4358 217.013Z" fill="#09C272"/>
<path d="M60.3388 171.879C62.8157 170.443 65.4447 169.38 68.226 168.692C71.0019 167.918 73.7648 167.614 76.5149 167.78C79.3448 167.856 82.0765 168.407 84.71 169.433C87.3382 170.374 89.8282 171.836 92.1802 173.817C94.5375 175.884 96.3968 178.196 97.758 180.752C99.1192 183.308 100.158 186.184 100.875 189.378C101.357 191.564 102.041 193.567 102.927 195.386C103.813 197.205 104.742 199.022 105.714 200.836C106.77 202.644 107.742 204.458 108.628 206.277C109.6 208.091 110.406 210.001 111.047 212.006C111.598 213.932 111.549 215.854 110.901 217.771C110.332 219.597 108.953 220.793 106.763 221.359C105.5 221.695 104.258 221.689 103.038 221.34C101.897 220.901 100.831 220.287 99.8386 219.498C98.8413 218.623 97.9265 217.701 97.0943 216.731C96.3419 215.671 95.6376 214.692 94.9813 213.796C93.1823 216.468 91.1778 218.6 88.9675 220.19C86.7519 221.695 84.0376 222.763 80.8246 223.394C78.1178 223.907 75.5226 224.157 73.0392 224.145C70.5557 224.132 67.8829 223.833 65.0205 223.248C61.2948 222.548 58.1652 221.127 55.632 218.986C53.1785 216.755 51.2151 214.152 49.7416 211.176C48.3479 208.11 47.495 204.797 47.1828 201.236C46.8705 197.675 47.0726 194.124 47.7889 190.582C48.6908 185.921 50.2436 182.071 52.4472 179.032C54.6508 175.993 57.2814 173.608 60.3388 171.879ZM64.4846 186.578C63.3666 187.843 62.5179 189.304 61.9384 190.961C61.359 192.618 61.0408 194.343 60.9837 196.137C61.012 197.926 61.296 199.698 61.8358 201.454C62.3756 203.21 63.1576 204.738 64.182 206.037C65.1103 207.171 66.6246 208.098 68.725 208.817C70.8199 209.451 72.9812 209.782 75.2089 209.811C77.7776 209.818 79.9512 208.998 81.7297 207.35C83.5935 205.697 84.9214 203.694 85.7134 201.341C86.5852 198.899 86.8948 196.364 86.642 193.737C86.3838 191.025 85.5023 188.609 83.9976 186.488C82.8718 184.939 81.4319 183.837 79.678 183.182C78.0094 182.52 76.2371 182.25 74.3613 182.369C72.4802 182.403 70.6233 182.82 68.7907 183.619C67.038 184.327 65.6027 185.314 64.4846 186.578Z" fill="#09C272"/>
<path d="M119.586 176.294C119.462 174.34 119.287 172.263 119.061 170.06C118.921 167.853 119.177 165.833 119.831 164.001C120.411 162.344 121.446 161.127 122.938 160.35C124.509 159.483 126.076 159.212 127.637 159.539C129.188 159.696 130.412 160.087 131.308 160.713C132.204 161.338 132.852 162.106 133.252 163.019C133.733 163.841 134.053 164.843 134.214 166.027C134.37 167.125 134.525 168.224 134.681 169.322C135.436 167.739 136.423 166.44 137.643 165.425C138.862 164.409 140.135 163.561 141.462 162.88C142.788 162.199 144.04 161.693 145.218 161.362C146.48 161.026 147.453 160.836 148.135 160.793C151.375 160.586 154.618 161.105 157.865 162.348C161.191 163.5 164.001 165.282 166.295 167.694C167.586 169.146 168.584 170.703 169.289 172.363C170.074 173.933 170.651 175.602 171.02 177.369C171.475 179.13 171.804 180.942 172.008 182.805C172.207 184.583 172.408 186.403 172.612 188.266C173.385 193.673 173.728 199.065 173.642 204.442C173.627 205.551 173.665 206.828 173.757 208.271C173.849 209.715 173.813 211.167 173.649 212.626C173.565 213.996 173.26 215.252 172.733 216.393C172.286 217.445 171.432 218.139 170.169 218.475C168.405 219.013 166.919 219.193 165.709 219.015C164.59 218.915 163.67 218.59 162.95 218.039C162.23 217.488 161.67 216.756 161.269 215.844C160.869 214.932 160.503 213.889 160.171 212.717C159.941 211.794 159.703 210.743 159.457 209.565C159.291 208.297 159.125 207.028 158.958 205.76C158.877 204.486 158.756 203.258 158.595 202.074C158.514 200.801 158.441 199.654 158.376 198.635C158.274 197.022 158.118 195.241 157.908 193.294C157.698 191.346 157.582 189.521 157.56 187.817C157.306 183.826 156.048 180.879 153.787 178.977C151.605 176.984 148.735 176.272 145.175 176.839C142.468 177.352 140.151 178.608 138.224 180.607C136.291 182.52 135.459 184.918 135.728 187.799C135.798 188.903 135.863 189.922 135.923 190.856C135.982 191.79 135.999 192.727 135.973 193.667C136.033 194.601 136.097 195.62 136.168 196.724C136.238 197.827 136.316 199.059 136.403 200.417C136.581 203.22 136.77 206.192 136.97 209.334C137.165 212.39 136.941 214.92 136.297 216.922C135.745 219.003 134.683 220.477 133.112 221.345C131.54 222.212 129.608 222.122 127.316 221.074C126.346 220.624 125.535 219.994 124.884 219.183C124.313 218.281 123.825 217.332 123.419 216.335C123.098 215.332 122.863 214.324 122.713 213.31C122.557 212.212 122.407 211.198 122.262 210.27C121.828 207.484 121.493 204.905 121.256 202.532C121.1 200.07 120.932 197.437 120.754 194.635L119.586 176.294Z" fill="#09C272"/>
<path d="M229.632 165.709C230.39 166.855 230.812 168.107 230.898 169.465C231.07 170.819 230.853 172.111 230.246 173.344C229.576 174.921 228.535 176.053 227.124 176.739C225.792 177.336 224.26 177.476 222.527 177.16C221.749 177.039 221.048 176.785 220.424 176.398C219.8 176.012 219.134 175.628 218.425 175.247C217.796 174.775 217.041 174.354 216.161 173.984C215.367 173.608 214.325 173.376 213.035 173.288C211.745 173.199 210.339 173.289 208.815 173.556C207.376 173.819 206.076 174.242 204.915 174.828C203.098 175.881 201.698 177.42 200.714 179.443C199.725 181.382 199.13 183.466 198.929 185.696C198.723 187.84 198.903 190.003 199.47 192.183C200.122 194.359 201.179 196.167 202.641 197.609C203.739 198.732 205.123 199.625 206.792 200.286C208.546 200.942 210.195 201.306 211.741 201.378C213.201 201.455 214.651 201.363 216.089 201.101C217.523 200.754 218.908 200.325 220.245 199.814C221.241 199.324 222.357 198.699 223.593 197.938C224.823 197.092 226.03 196.547 227.213 196.301C228.747 196.203 229.968 196.552 230.875 197.347C231.776 198.057 232.435 198.995 232.852 200.162C233.263 201.244 233.381 202.431 233.207 203.721C233.117 205.005 232.718 206.139 232.011 207.122C231.068 208.461 229.697 209.784 227.897 211.092C226.092 212.316 224.352 213.236 222.68 213.854C220.677 214.664 218.399 215.192 215.846 215.44C213.379 215.682 211.029 215.747 208.796 215.633C207.762 215.528 206.683 215.384 205.558 215.2C204.433 215.015 203.349 214.786 202.304 214.512C198.466 213.392 195.189 211.682 192.475 209.382C189.84 206.992 187.741 204.269 186.176 201.214C184.698 198.154 183.759 194.846 183.362 191.29C182.964 187.735 183.166 184.184 183.968 180.637C184.695 177.266 185.668 174.39 186.886 172.011C188.19 169.626 189.733 167.652 191.517 166.089C193.381 164.435 195.48 163.108 197.813 162.107C200.141 161.021 202.733 160.046 205.589 159.182C208.535 158.398 211.69 158.197 215.053 158.58C218.416 158.963 221.47 159.877 224.216 161.322C226.333 162.296 228.138 163.758 229.632 165.709Z" fill="#09C272"/>
<path d="M292.534 185.749C292.728 187.442 292.884 189.223 293.003 191.091C293.116 192.874 293.179 194.533 293.191 196.066C293.252 198.365 293.259 200.496 293.213 202.459C293.161 204.338 292.923 205.974 292.497 207.365C292.067 208.671 291.319 209.699 290.254 210.449C289.269 211.109 287.83 211.371 285.938 211.235C283.961 211.105 282.494 210.261 281.539 208.702C280.584 207.142 279.871 205.355 279.4 203.339C279.009 201.232 278.789 199.114 278.739 196.986C278.689 194.858 278.584 193.202 278.423 192.019C278.219 190.156 277.998 188.038 277.762 185.666C277.605 183.204 277.203 180.927 276.557 178.837C275.99 176.656 275.103 174.837 273.898 173.379C272.692 171.921 270.978 171.22 268.756 171.276C265.931 171.286 263.771 171.636 262.274 172.328C260.862 173.015 259.853 173.974 259.247 175.207C258.635 176.354 258.295 177.74 258.227 179.364C258.244 180.983 258.185 182.734 258.048 184.619L258.236 189.595L258.828 198.893C258.925 200.421 258.985 202.037 259.008 203.741C259.111 205.354 258.949 206.857 258.524 208.248C258.099 209.639 257.362 210.837 256.313 211.842C255.349 212.841 253.844 213.406 251.798 213.536C249.24 213.699 247.27 213.014 245.889 211.482C244.587 209.86 243.858 207.817 243.701 205.355L239.04 132.115C239.008 131.606 238.978 131.139 238.951 130.714C239.004 130.199 239.057 129.684 239.109 129.169C239.247 128.649 239.346 128.174 239.404 127.744C239.457 127.229 239.555 126.754 239.698 126.318C239.9 125.453 240.286 124.789 240.856 124.326C241.255 123.875 241.66 123.508 242.07 123.226C242.48 122.944 242.938 122.744 243.444 122.627C243.865 122.515 244.332 122.443 244.843 122.41C245.349 122.293 245.858 122.218 246.37 122.185C247.649 122.104 248.909 122.407 250.152 123.095C250.685 123.402 251.178 123.755 251.631 124.152C252.079 124.465 252.453 124.953 252.752 125.616C253.537 127.186 253.975 128.692 254.067 130.136C254.179 130.555 254.262 131.189 254.316 132.038C254.45 132.797 254.544 133.601 254.598 134.45C254.652 135.299 254.706 136.149 254.76 136.998C254.894 137.757 254.975 138.348 255.002 138.773L255.042 139.41C255.3 142.122 255.519 144.879 255.697 147.681C255.875 150.483 256.056 153.328 256.24 156.215L256.378 158.38C259.883 156.963 263.6 156.173 267.527 156.008C271.449 155.758 274.994 156.3 278.161 157.633C281.418 159.046 283.922 160.72 285.671 162.654C287.506 164.584 288.886 166.756 289.81 169.169C290.734 171.583 291.328 174.188 291.591 176.985C291.94 179.776 292.255 182.698 292.534 185.749Z" fill="#09C272"/>
<path d="M330.413 162.876C330.289 160.923 330.114 158.846 329.888 156.643C329.748 154.435 330.004 152.416 330.658 150.584C331.238 148.927 332.273 147.71 333.765 146.933C335.336 146.065 336.903 145.795 338.464 146.122C340.015 146.279 341.239 146.67 342.135 147.295C343.03 147.92 343.679 148.689 344.079 149.602C344.559 150.424 344.88 151.426 345.041 152.61C345.197 153.708 345.352 154.807 345.508 155.905C346.263 154.322 347.25 153.023 348.47 152.008C349.689 150.992 350.962 150.144 352.289 149.463C353.615 148.781 354.867 148.276 356.044 147.945C357.307 147.609 358.28 147.419 358.962 147.375C362.202 147.169 365.445 147.688 368.692 148.93C372.018 150.083 374.828 151.865 377.122 154.277C378.413 155.729 379.411 157.286 380.116 158.946C380.901 160.516 381.478 162.184 381.847 163.951C382.301 165.713 382.631 167.525 382.835 169.388C383.034 171.165 383.235 172.986 383.439 174.848C384.211 180.256 384.555 185.648 384.469 191.025C384.454 192.134 384.492 193.411 384.584 194.854C384.676 196.298 384.64 197.749 384.476 199.209C384.392 200.579 384.087 201.834 383.56 202.976C383.113 204.028 382.258 204.722 380.996 205.058C379.232 205.596 377.745 205.776 376.536 205.597C375.416 205.498 374.497 205.173 373.777 204.622C373.057 204.071 372.497 203.339 372.096 202.427C371.696 201.515 371.33 200.472 370.998 199.3C370.768 198.376 370.53 197.326 370.284 196.148C370.118 194.88 369.951 193.611 369.785 192.343C369.704 191.069 369.583 189.841 369.422 188.657C369.341 187.384 369.268 186.237 369.203 185.218C369.101 183.605 368.944 181.824 368.735 179.877C368.525 177.929 368.409 176.103 368.386 174.4C368.132 170.409 366.875 167.462 364.613 165.56C362.432 163.567 359.562 162.854 356.002 163.422C353.295 163.935 350.978 165.191 349.051 167.19C347.118 169.103 346.286 171.501 346.555 174.382C346.625 175.486 346.69 176.505 346.75 177.439C346.809 178.373 346.826 179.31 346.8 180.25C346.859 181.184 346.924 182.203 346.995 183.306C347.065 184.41 347.143 185.642 347.23 187C347.408 189.802 347.597 192.775 347.797 195.916C347.992 198.973 347.767 201.503 347.124 203.505C346.572 205.586 345.51 207.06 343.939 207.928C342.367 208.795 340.435 208.705 338.143 207.657C337.172 207.207 336.362 206.577 335.711 205.766C335.14 204.864 334.652 203.915 334.246 202.917C333.925 201.915 333.69 200.907 333.539 199.893C333.384 198.795 333.234 197.781 333.089 196.852C332.655 194.066 332.32 191.487 332.083 189.115C331.926 186.653 331.759 184.02 331.581 181.218L330.413 162.876Z" fill="#09C272"/>
<path d="M408.837 145.736C411.564 144.198 414.444 143.035 417.475 142.245C420.507 141.455 423.526 141.135 426.532 141.285C429.623 141.429 432.616 142.049 435.51 143.143C438.49 144.233 441.247 145.848 443.78 147.988C445.866 149.817 447.722 152.086 449.35 154.796C450.973 157.421 452.209 160.028 453.058 162.617C454.805 167.195 455.318 171.894 454.597 176.714C453.877 181.535 452.41 186.062 450.197 190.295C449.122 192.239 447.738 194.032 446.045 195.675C444.431 197.227 442.674 198.532 440.772 199.591C438.29 200.943 435.57 201.926 432.613 202.54C429.661 203.24 426.77 203.551 423.94 203.476C418.808 203.547 414.208 202.56 410.14 200.517C406.158 198.469 402.859 195.737 400.245 192.323C397.716 188.903 395.924 184.967 394.87 180.515C393.897 175.973 393.898 171.284 394.874 166.447C395.914 161.266 397.613 157.023 399.971 153.718C402.409 150.323 405.364 147.662 408.837 145.736ZM413.76 162.56C412.557 163.83 411.671 165.378 411.102 167.205C410.534 169.032 410.226 170.927 410.18 172.891C410.128 174.77 410.378 176.672 410.928 178.598C411.559 180.434 412.434 182.083 413.555 183.547C414.489 184.766 416.091 185.73 418.362 186.438C420.633 187.146 422.967 187.509 425.365 187.527C428.105 187.523 430.446 186.649 432.39 184.906C434.328 183.077 435.73 180.899 436.597 178.371C437.548 175.838 437.89 173.131 437.621 170.249C437.352 167.368 436.417 164.784 434.816 162.499C433.685 160.866 432.157 159.727 430.233 159.082C428.388 158.346 426.442 158.044 424.396 158.174C422.43 158.214 420.488 158.636 418.57 159.44C416.647 160.159 415.043 161.199 413.76 162.56Z" fill="#09C272"/>
<path fill-rule="evenodd" clip-rule="evenodd" d="M318.006 168.909L317.495 160.885C317.431 159.866 317.318 158.765 317.157 157.581C317.076 156.308 316.915 155.124 316.674 154.031C316.513 152.848 316.318 151.795 316.088 150.871C315.858 149.948 315.556 149.243 315.182 148.755C314.622 148.023 313.732 147.483 312.511 147.134C311.376 146.78 310.168 146.644 308.889 146.725C307.696 146.801 306.558 147.087 305.477 147.582C304.39 147.992 303.57 148.556 303.016 149.273C302.319 150.426 301.854 151.862 301.621 153.582C301.383 155.218 301.278 156.929 301.306 158.718C301.334 160.507 301.402 162.25 301.51 163.948C301.704 165.641 301.838 167.082 301.914 168.271L302.352 175.149L302.838 182.792C303.091 185.418 303.298 188.006 303.46 190.553C303.708 193.095 303.893 195.343 304.018 197.296C304.431 201.106 305.26 204.037 306.504 206.09C307.832 208.137 309.824 209.161 312.478 209.163C314.274 209.134 315.659 208.704 316.633 207.875C317.688 206.955 318.43 205.842 318.861 204.536C319.291 203.23 319.546 201.849 319.625 200.395C319.698 198.856 319.737 197.446 319.741 196.167C319.658 193.529 319.52 190.682 319.326 187.625L318.726 178.2C318.52 174.973 318.28 171.876 318.006 168.909Z" fill="#09C272"/>
<path fill-rule="evenodd" clip-rule="evenodd" d="M319.832 118.066C321.25 117.975 322.472 119.047 322.561 120.458C322.777 123.85 322.407 129.012 320.49 133.523C318.538 138.117 314.785 142.375 308.254 142.791C301.689 143.208 297.601 139.428 295.325 135.06C293.108 130.805 292.411 125.723 292.409 122.344C292.408 120.93 293.558 119.782 294.978 119.78C296.399 119.778 297.551 120.924 297.552 122.338C297.554 125.202 298.172 129.4 299.891 132.698C301.55 135.883 304.015 137.928 307.929 137.679C311.877 137.427 314.275 135.009 315.754 131.528C317.269 127.964 317.611 123.653 317.429 120.785C317.339 119.373 318.415 118.156 319.832 118.066Z" fill="#09C272"/>
<path fill-rule="evenodd" clip-rule="evenodd" d="M307.121 117.413C308.538 117.323 309.76 118.394 309.85 119.806L310.636 132.16C310.726 133.572 309.65 134.789 308.233 134.879C306.815 134.969 305.593 133.898 305.503 132.487L304.717 120.133C304.627 118.721 305.704 117.504 307.121 117.413Z" fill="#09C272"/>
<path fill-rule="evenodd" clip-rule="evenodd" d="M459.091 186.603C459.682 186.634 460.135 187.137 460.103 187.726C459.793 193.408 456.989 197.796 453.679 200.944C450.381 204.081 446.528 206.04 443.946 206.894C443.385 207.08 442.778 206.777 442.592 206.218C442.406 205.659 442.71 205.054 443.272 204.869C445.589 204.102 449.157 202.295 452.2 199.4C455.232 196.517 457.691 192.609 457.963 187.611C457.996 187.022 458.501 186.571 459.091 186.603Z" fill="#09C272"/>
<path fill-rule="evenodd" clip-rule="evenodd" d="M393.411 153.784C392.832 153.66 392.464 153.093 392.589 152.517C393.79 146.953 397.251 143.057 401.016 140.465C404.767 137.883 408.881 136.55 411.565 136.11C412.149 136.014 412.7 136.408 412.796 136.989C412.892 137.571 412.496 138.12 411.912 138.216C409.503 138.611 405.695 139.838 402.233 142.221C398.785 144.595 395.741 148.071 394.684 152.964C394.559 153.541 393.989 153.908 393.411 153.784Z" fill="#09C272"/>
<path fill-rule="evenodd" clip-rule="evenodd" d="M78.4149 199.996C79.8368 198.025 80.618 195.727 80.5125 194.068C80.4131 192.507 79.6106 191.333 78.3416 190.527C77.0327 189.695 75.2302 189.272 73.3433 189.392C69.9178 189.61 67.317 192.552 67.5341 195.964C67.649 197.769 68.4333 199.718 69.6445 201.161C70.8547 202.602 72.3204 203.358 73.7966 203.264C75.2295 203.173 76.9709 201.997 78.4149 199.996ZM73.9051 204.968C78.2754 204.69 82.5004 198.312 82.2234 193.959C81.9464 189.607 77.6052 187.41 73.2348 187.688C68.8645 187.966 65.5461 191.72 65.8231 196.072C66.1001 200.425 69.5347 205.246 73.9051 204.968Z" fill="#09C272"/>
<path fill-rule="evenodd" clip-rule="evenodd" d="M-13.433 257.198C-13.5303 255.669 -12.3644 254.35 -10.8289 254.252L121.771 245.813C123.307 245.715 124.63 246.876 124.728 248.405C124.825 249.934 123.659 251.253 122.124 251.351L-10.4764 259.79C-12.012 259.888 -13.3356 258.727 -13.433 257.198Z" fill="#09C272"/>
<path fill-rule="evenodd" clip-rule="evenodd" d="M320.633 235.929C320.541 234.399 321.711 233.084 323.247 232.991L455.874 224.984C457.41 224.891 458.73 226.056 458.822 227.586C458.914 229.115 457.744 230.43 456.208 230.523L323.581 238.53C322.045 238.623 320.726 237.458 320.633 235.929Z" fill="#09C272"/>
<path d="M289.075 235.07C288.393 235.113 287.842 235.346 287.424 235.768C287.006 236.19 286.815 236.687 286.852 237.259L287.135 241.715C287.163 242.144 287.033 242.464 286.745 242.674C286.47 242.883 286.027 243.007 285.416 243.046L284.919 235.227C284.857 234.261 285.401 233.741 286.551 233.668L286.619 234.741C286.475 234.93 286.349 235.124 286.241 235.322L286.336 235.388C287.018 234.207 287.934 233.58 289.084 233.507C289.539 233.478 289.894 233.569 290.148 233.78C290.414 233.991 290.557 234.263 290.579 234.597C290.594 234.848 290.542 235.067 290.422 235.254C290.075 235.096 289.626 235.035 289.075 235.07Z" fill="#09C272"/>
<path d="M276.984 243.582C276.253 243.629 275.586 243.527 274.98 243.279C274.375 243.03 273.889 242.665 273.522 242.186C273.155 241.706 272.951 241.156 272.912 240.536L272.749 237.977C272.708 237.333 272.845 236.744 273.16 236.209C273.486 235.661 273.932 235.219 274.5 234.884C275.068 234.548 275.699 234.358 276.394 234.314C277.089 234.27 277.733 234.373 278.326 234.622C278.919 234.872 279.399 235.243 279.767 235.734C280.135 236.214 280.339 236.776 280.38 237.42L280.45 238.529C280.463 238.732 280.391 238.916 280.233 239.082C280.086 239.235 279.899 239.319 279.672 239.333L274.606 239.656L274.649 240.336C274.685 240.908 274.895 241.362 275.277 241.697C275.658 242.02 276.196 242.159 276.891 242.115C277.585 242.071 278.097 241.889 278.425 241.568C278.765 241.235 278.918 240.818 278.887 240.317C279.315 240.254 279.673 240.303 279.96 240.465C280.246 240.614 280.4 240.862 280.422 241.208C280.446 241.577 280.301 241.94 279.987 242.295C279.684 242.638 279.263 242.928 278.725 243.166C278.199 243.403 277.619 243.542 276.984 243.582ZM278.778 238.043L278.745 237.524C278.709 236.963 278.483 236.523 278.065 236.202C277.647 235.869 277.121 235.723 276.486 235.763C275.852 235.804 275.348 236.016 274.975 236.399C274.614 236.769 274.451 237.234 274.487 237.795L274.52 238.314L278.778 238.043Z" fill="#09C272"/>
<path d="M267.081 244.212C266.182 244.27 265.502 244.061 265.039 243.588C264.575 243.102 264.317 242.448 264.264 241.625L263.949 236.669L262.224 236.779C262.195 236.314 262.269 235.962 262.446 235.723C262.622 235.472 262.872 235.336 263.195 235.316L263.896 235.271L263.792 233.643C263.765 233.214 263.889 232.894 264.164 232.685C264.44 232.476 264.871 232.353 265.458 232.316L265.639 235.16L268.028 235.008C268.058 235.485 267.979 235.844 267.79 236.083C267.613 236.322 267.314 236.455 266.895 236.482L265.763 236.554L266.074 241.438C266.103 241.891 266.208 242.214 266.388 242.406C266.568 242.586 266.874 242.663 267.305 242.635C267.724 242.609 268.124 242.469 268.505 242.218C268.709 242.396 268.82 242.629 268.838 242.915C268.858 243.225 268.713 243.51 268.405 243.769C268.097 244.028 267.655 244.176 267.081 244.212Z" fill="#09C272"/>
<path d="M250.167 237.438C250.106 236.472 250.65 235.953 251.8 235.879L251.871 237.007C251.759 237.133 251.638 237.309 251.508 237.533L251.602 237.599C251.929 237.063 252.364 236.622 252.907 236.276C253.462 235.929 254.075 235.735 254.746 235.692C255.704 235.631 256.483 235.875 257.083 236.423C257.683 236.96 258.011 237.682 258.069 238.588L258.384 243.544C258.411 243.962 258.281 244.281 257.994 244.503C257.719 244.712 257.282 244.836 256.683 244.874L256.304 238.916C256.271 238.391 256.088 237.978 255.756 237.676C255.424 237.373 254.959 237.241 254.36 237.279C253.941 237.306 253.552 237.427 253.192 237.641C252.833 237.844 252.555 238.107 252.359 238.431C252.163 238.755 252.077 239.101 252.1 239.471L252.384 243.926C252.411 244.356 252.281 244.675 251.994 244.885C251.719 245.094 251.276 245.218 250.665 245.257L250.167 237.438Z" fill="#09C272"/>
<path d="M242.233 245.794C241.502 245.84 240.834 245.739 240.229 245.49C239.624 245.241 239.138 244.877 238.771 244.397C238.403 243.918 238.2 243.368 238.161 242.747L237.998 240.189C237.957 239.545 238.094 238.955 238.408 238.42C238.734 237.873 239.181 237.431 239.749 237.095C240.317 236.76 240.948 236.57 241.643 236.526C242.337 236.482 242.981 236.584 243.574 236.834C244.167 237.084 244.648 237.454 245.016 237.946C245.383 238.425 245.587 238.987 245.628 239.631L245.699 240.741C245.712 240.944 245.639 241.128 245.482 241.294C245.335 241.447 245.148 241.53 244.92 241.545L239.854 241.867L239.897 242.547C239.934 243.12 240.143 243.573 240.525 243.908C240.907 244.231 241.445 244.371 242.139 244.327C242.834 244.282 243.345 244.1 243.674 243.78C244.013 243.447 244.167 243.03 244.135 242.529C244.564 242.466 244.922 242.515 245.209 242.676C245.495 242.826 245.649 243.073 245.671 243.419C245.694 243.789 245.549 244.152 245.235 244.507C244.932 244.849 244.512 245.14 243.974 245.378C243.448 245.615 242.867 245.753 242.233 245.794ZM244.027 240.254L243.993 239.736C243.958 239.175 243.731 238.734 243.314 238.413C242.896 238.081 242.37 237.935 241.735 237.975C241.1 238.015 240.597 238.227 240.224 238.61C239.863 238.98 239.7 239.446 239.736 240.006L239.769 240.525L244.027 240.254Z" fill="#09C272"/>
<path d="M229.043 246.633C228.013 246.699 227.084 246.566 226.258 246.236C225.43 245.893 224.773 245.39 224.286 244.726C223.799 244.063 223.527 243.29 223.471 242.407L223.232 238.65C223.175 237.767 223.347 236.972 223.747 236.263C224.146 235.543 224.729 234.967 225.495 234.535C226.261 234.103 227.153 233.855 228.171 233.79C229.189 233.725 230.104 233.829 230.915 234.101C231.737 234.36 232.388 234.755 232.866 235.288C233.345 235.82 233.608 236.45 233.654 237.178C233.678 237.56 233.572 237.872 233.335 238.114C233.097 238.345 232.769 238.474 232.349 238.5C232.194 238.51 232.013 238.504 231.807 238.481C231.819 238.289 231.815 238.043 231.796 237.745C231.765 237.256 231.594 236.836 231.283 236.484C230.971 236.121 230.552 235.854 230.024 235.684C229.507 235.502 228.925 235.431 228.278 235.472C227.644 235.512 227.082 235.668 226.595 235.939C226.107 236.209 225.733 236.574 225.474 237.034C225.226 237.481 225.119 237.979 225.154 238.527L225.393 242.285C225.429 242.845 225.604 243.337 225.92 243.76C226.235 244.171 226.651 244.486 227.17 244.704C227.701 244.91 228.289 244.992 228.936 244.951C229.942 244.887 230.742 244.609 231.336 244.116C231.941 243.61 232.22 242.988 232.173 242.248C232.159 242.022 232.131 241.778 232.09 241.517C232.256 241.471 232.416 241.442 232.572 241.432C233.003 241.405 233.358 241.502 233.637 241.724C233.915 241.946 234.068 242.259 234.093 242.665C234.138 243.369 233.957 244.015 233.549 244.604C233.141 245.181 232.546 245.65 231.763 246.011C230.98 246.36 230.073 246.568 229.043 246.633Z" fill="#09C272"/>
<path d="M203.23 236.833C203.2 236.367 203.327 236 203.611 235.731C203.906 235.46 204.347 235.306 204.934 235.269L205.233 239.957C205.109 240.096 204.982 240.278 204.852 240.502L204.947 240.568C205.285 240.031 205.72 239.59 206.252 239.245C206.783 238.9 207.378 238.706 208.036 238.664C208.995 238.604 209.774 238.847 210.374 239.396C210.973 239.933 211.302 240.654 211.359 241.561L211.675 246.517C211.701 246.934 211.571 247.254 211.285 247.476C211.01 247.685 210.572 247.809 209.974 247.847L209.594 241.889C209.561 241.364 209.378 240.95 209.047 240.648C208.715 240.346 208.249 240.214 207.65 240.252C207.231 240.279 206.842 240.399 206.483 240.614C206.123 240.816 205.845 241.079 205.649 241.403C205.454 241.727 205.367 242.074 205.391 242.444L205.674 246.899C205.701 247.316 205.571 247.636 205.284 247.858C204.997 248.068 204.554 248.192 203.955 248.23L203.23 236.833Z" fill="#09C272"/>
<path d="M195.715 248.754C194.973 248.801 194.3 248.712 193.696 248.487C193.104 248.25 192.631 247.903 192.277 247.446C191.922 246.978 191.725 246.433 191.686 245.813L191.509 243.04C191.468 242.396 191.588 241.813 191.867 241.292C192.159 240.771 192.583 240.355 193.141 240.044C193.709 239.72 194.365 239.535 195.107 239.487C195.802 239.443 196.425 239.505 196.977 239.674C197.528 239.83 197.965 240.078 198.287 240.417C198.621 240.755 198.803 241.156 198.833 241.622C198.854 241.956 198.733 242.233 198.471 242.453C198.208 242.661 197.865 242.767 197.445 242.77C197.41 242.221 197.184 241.786 196.767 241.466C196.361 241.144 195.853 241.003 195.242 241.042C194.632 241.08 194.145 241.279 193.783 241.637C193.421 241.996 193.257 242.443 193.291 242.98L193.458 245.592C193.49 246.105 193.708 246.511 194.112 246.808C194.528 247.105 195.047 247.234 195.67 247.194C196.281 247.155 196.767 246.951 197.128 246.58C197.501 246.209 197.671 245.755 197.637 245.219C198.066 245.155 198.424 245.21 198.711 245.384C198.999 245.557 199.154 245.811 199.175 246.145C199.204 246.61 199.075 247.031 198.786 247.409C198.51 247.786 198.102 248.093 197.564 248.331C197.026 248.569 196.41 248.71 195.715 248.754Z" fill="#09C272"/>
<path d="M178.822 241.979C178.761 241.013 179.305 240.493 180.455 240.42L180.526 241.547C180.414 241.674 180.293 241.849 180.163 242.073L180.257 242.139C180.584 241.603 181.019 241.162 181.562 240.816C182.117 240.47 182.73 240.275 183.401 240.232C184.359 240.171 185.138 240.415 185.738 240.964C186.338 241.501 186.666 242.222 186.724 243.129L187.039 248.085C187.066 248.502 186.936 248.822 186.649 249.044C186.374 249.253 185.937 249.376 185.338 249.415L184.959 243.457C184.926 242.932 184.743 242.518 184.411 242.216C184.079 241.914 183.614 241.782 183.015 241.82C182.596 241.846 182.207 241.967 181.848 242.182C181.488 242.384 181.21 242.647 181.014 242.971C180.818 243.295 180.732 243.642 180.755 244.012L181.039 248.467C181.066 248.896 180.936 249.216 180.649 249.426C180.374 249.635 179.931 249.759 179.32 249.798L178.822 241.979Z" fill="#09C272"/>
<path d="M169.976 250.392C168.982 250.455 168.15 250.239 167.481 249.743C166.811 249.234 166.448 248.527 166.39 247.62C166.332 246.702 166.62 245.947 167.256 245.356C167.892 244.764 168.743 244.435 169.809 244.367C170.934 244.295 171.887 244.618 172.666 245.335L172.733 245.259C172.567 245.101 172.395 244.957 172.219 244.824L172.18 244.216C172.144 243.643 171.93 243.214 171.539 242.927C171.147 242.629 170.616 242.501 169.945 242.544C168.735 242.621 167.891 243.142 167.411 244.106C167.177 244.025 166.983 243.906 166.829 243.748C166.686 243.578 166.609 243.403 166.597 243.224C166.576 242.89 166.718 242.57 167.023 242.263C167.327 241.944 167.743 241.678 168.271 241.465C168.799 241.251 169.368 241.125 169.979 241.087C171.152 241.012 172.093 241.239 172.8 241.769C173.507 242.299 173.892 243.059 173.955 244.049L174.258 248.808C174.287 249.262 174.17 249.604 173.909 249.837C173.646 250.057 173.227 250.185 172.652 250.222L172.601 249.417C172.835 249.126 172.963 248.963 172.985 248.925L172.908 248.858C172.542 249.337 172.12 249.705 171.644 249.963C171.178 250.208 170.622 250.351 169.976 250.392ZM170.266 249.008C170.973 248.963 171.515 248.785 171.892 248.474C172.269 248.162 172.441 247.75 172.408 247.237C172.376 246.724 172.152 246.331 171.738 246.058C171.324 245.785 170.775 245.671 170.093 245.714C169.458 245.754 168.964 245.936 168.612 246.257C168.26 246.579 168.1 246.997 168.133 247.509C168.165 248.022 168.37 248.411 168.748 248.674C169.125 248.937 169.632 249.049 170.266 249.008Z" fill="#09C272"/>
<path d="M155.663 251.141C155.387 251.159 155.142 251.079 154.926 250.901C154.721 250.71 154.61 250.478 154.593 250.203L153.946 240.041C153.882 239.027 154.496 238.479 155.79 238.397L156.49 249.4L161.772 249.064C162.239 249.034 162.607 249.155 162.877 249.425C163.147 249.695 163.299 250.105 163.334 250.653L155.663 251.141Z" fill="#09C272"/>
</g>
<path d="M31.7916 34.0116C31.8335 34.1146 31.8545 34.269 31.8545 34.4748C31.8545 34.6601 31.8545 34.8145 31.8545 34.938C31.8545 35.1027 31.823 35.2571 31.7602 35.4012C31.6973 35.5453 31.6135 35.6791 31.5087 35.8026C31.3201 36.0496 31.0477 36.2349 30.6914 36.3584C30.1885 36.5231 29.7169 36.6054 29.2769 36.6054C29.0464 36.626 28.8054 36.6363 28.5539 36.6363C28.3024 36.6363 28.0509 36.6569 27.7995 36.698H27.6737C26.0601 36.7186 24.3941 36.7186 22.6757 36.698C22.2566 36.6775 21.7851 36.6775 21.2612 36.698C20.7373 36.7392 20.2239 36.7289 19.721 36.6672C19.218 36.626 18.757 36.5128 18.3379 36.3275C17.9397 36.1217 17.6568 35.8026 17.4891 35.3703C17.4472 35.2674 17.4158 35.1747 17.3948 35.0924C17.3739 34.9895 17.3634 34.8865 17.3634 34.7836C17.2796 34.0837 17.2482 33.3941 17.2691 32.7147C17.2901 32.0354 17.3005 31.3664 17.3005 30.7077L17.3634 26.2303V22.0926C17.3634 21.3515 17.3634 20.6928 17.3634 20.1164C17.3844 19.54 17.4053 18.9018 17.4263 18.2019V18.0475C17.4472 17.8417 17.4577 17.6358 17.4577 17.43C17.4787 17.2241 17.4891 17.0183 17.4891 16.8124C17.5311 16.3389 17.6463 15.9375 17.8349 15.6081C17.9607 15.2994 18.1807 15.0523 18.495 14.8671C18.7675 14.6818 19.0923 14.5892 19.4695 14.5892C19.6162 14.5892 19.7524 14.5995 19.8781 14.62C20.0248 14.62 20.161 14.6303 20.2868 14.6509C20.4125 14.6715 20.5278 14.7127 20.6325 14.7744C20.7583 14.8362 20.884 14.9185 21.0097 15.0215C21.1355 15.1656 21.2507 15.3405 21.3555 15.5464C21.4393 15.7728 21.4917 15.9993 21.5127 16.2257C21.5336 16.3698 21.5546 16.5036 21.5756 16.6271C21.5965 16.7506 21.607 16.8742 21.607 16.9977C21.5651 17.1212 21.5441 17.2447 21.5441 17.3682C21.5441 17.4917 21.5441 17.6049 21.5441 17.7079V18.2637L21.4184 32.8074L27.6423 32.8691H29.1197C29.2454 32.8691 29.3817 32.8794 29.5283 32.9C29.675 32.9 29.8217 32.9103 29.9684 32.9309C30.1361 32.9515 30.2828 32.9721 30.4085 32.9926C30.5342 33.0132 30.66 33.0441 30.7857 33.0853C31.0162 33.147 31.2048 33.25 31.3515 33.3941C31.582 33.5999 31.7287 33.8058 31.7916 34.0116Z" fill="white"/>
<path d="M36.3876 23.3586C37.0162 23.0498 37.6764 22.8337 38.3679 22.7102C39.0595 22.5661 39.7405 22.5352 40.4111 22.6175C41.1027 22.6793 41.7628 22.8543 42.3914 23.1425C43.0201 23.4101 43.6069 23.8012 44.1518 24.3158C44.6966 24.8511 45.1157 25.4377 45.4091 26.0759C45.7025 26.7141 45.9121 27.4243 46.0378 28.2065C46.1216 28.7417 46.2578 29.2358 46.4464 29.6887C46.635 30.1415 46.8341 30.5944 47.0437 31.0473C47.2742 31.5002 47.4837 31.9531 47.6723 32.406C47.8819 32.8588 48.0496 33.3323 48.1753 33.8264C48.2801 34.2998 48.2382 34.763 48.0496 35.2159C47.8819 35.6482 47.5257 35.9158 46.9808 36.0187C46.6665 36.0805 46.3626 36.0599 46.0692 35.957C45.7968 35.8335 45.5453 35.6688 45.3148 35.4629C45.0843 35.2365 44.8747 34.9997 44.6861 34.7527C44.5185 34.4851 44.3613 34.2381 44.2146 34.0116C43.7326 34.6292 43.2087 35.113 42.6429 35.4629C42.0771 35.7923 41.396 36.0084 40.5997 36.1114C39.9291 36.1937 39.29 36.2143 38.6822 36.1731C38.0745 36.1319 37.4249 36.0187 36.7333 35.8335C35.8322 35.607 35.0883 35.2159 34.5015 34.6601C33.9357 34.0837 33.4956 33.4249 33.1813 32.6839C32.8879 31.9222 32.7308 31.1091 32.7098 30.2445C32.6888 29.3799 32.7936 28.5256 33.0241 27.6816C33.3175 26.57 33.7576 25.6642 34.3444 24.9643C34.9311 24.2644 35.6122 23.7291 36.3876 23.3586ZM37.1734 26.9714C36.88 27.2596 36.6495 27.5992 36.4819 27.9904C36.3142 28.3815 36.2094 28.7932 36.1675 29.2255C36.1466 29.6578 36.1885 30.0901 36.2933 30.5224C36.398 30.9547 36.5657 31.3355 36.7962 31.6649C37.0058 31.9531 37.362 32.2001 37.865 32.406C38.3679 32.5912 38.8918 32.7045 39.4367 32.7456C40.0653 32.7868 40.6102 32.6221 41.0712 32.2516C41.5532 31.881 41.9095 31.4179 42.14 30.862C42.3914 30.2856 42.5067 29.6784 42.4858 29.0402C42.4648 28.3815 42.2867 27.7845 41.9514 27.2493C41.6999 26.8582 41.3646 26.57 40.9455 26.3847C40.5473 26.1994 40.1177 26.1068 39.6567 26.1068C39.1957 26.0862 38.7346 26.1582 38.2736 26.3229C37.8335 26.467 37.4668 26.6832 37.1734 26.9714Z" fill="white"/>
<path d="M50.8219 25.3348C50.8219 24.8614 50.8114 24.357 50.7904 23.8218C50.7904 23.2866 50.8847 22.8028 51.0734 22.3705C51.241 21.9794 51.5134 21.7015 51.8906 21.5368C52.2888 21.3515 52.6765 21.3103 53.0537 21.4133C53.4309 21.475 53.7243 21.5882 53.9338 21.7529C54.1434 21.9176 54.2901 22.1132 54.3739 22.3396C54.4787 22.5455 54.5416 22.7925 54.5625 23.0807C54.5835 23.3483 54.6044 23.6159 54.6254 23.8835C54.8349 23.513 55.0969 23.2145 55.4112 22.9881C55.7256 22.7616 56.0504 22.5764 56.3857 22.4323C56.721 22.2882 57.0353 22.1852 57.3287 22.1235C57.643 22.0617 57.884 22.0308 58.0517 22.0308C58.848 22.0308 59.6339 22.2058 60.4092 22.5558C61.2056 22.8851 61.8657 23.3586 62.3896 23.9762C62.6829 24.3467 62.903 24.7378 63.0497 25.1496C63.2173 25.5407 63.3326 25.9524 63.3955 26.3847C63.4793 26.817 63.5317 27.2596 63.5526 27.7125C63.5736 28.1447 63.5945 28.5873 63.6155 29.0402C63.7203 30.3577 63.7203 31.6649 63.6155 32.9618C63.5945 33.2294 63.5841 33.5382 63.5841 33.8881C63.5841 34.2381 63.5526 34.588 63.4897 34.938C63.4478 35.2674 63.3535 35.5658 63.2068 35.8335C63.0811 36.0805 62.8611 36.2349 62.5467 36.2966C62.1067 36.3996 61.7399 36.4201 61.4465 36.3584C61.1741 36.3172 60.9541 36.2246 60.7864 36.0805C60.6188 35.9364 60.493 35.7511 60.4092 35.5247C60.3254 35.2982 60.2521 35.0409 60.1892 34.7527C60.1473 34.5263 60.1054 34.269 60.0635 33.9808C60.0425 33.672 60.0215 33.3632 60.0006 33.0544C60.0006 32.7456 59.9901 32.4471 59.9692 32.1589C59.9692 31.8501 59.9692 31.5722 59.9692 31.3252C59.9692 30.9341 59.9587 30.5018 59.9377 30.0283C59.9168 29.5549 59.9168 29.1123 59.9377 28.7006C59.9377 27.733 59.6758 27.0023 59.1519 26.5082C58.6489 25.9936 57.9574 25.7774 57.0772 25.8598C56.4066 25.9421 55.8199 26.2097 55.3169 26.6626C54.814 27.0949 54.573 27.661 54.594 28.3609C54.594 28.6285 54.594 28.8755 54.594 29.102C54.594 29.3284 54.5835 29.5549 54.5625 29.7813C54.5625 30.0077 54.5625 30.2548 54.5625 30.5224C54.5625 30.79 54.5625 31.0885 54.5625 31.4179C54.5625 32.0972 54.5625 32.8177 54.5625 33.5793C54.5625 34.3204 54.4682 34.9277 54.2796 35.4012C54.112 35.8952 53.8291 36.2349 53.4309 36.4201C53.0327 36.6054 52.5612 36.554 52.0164 36.2658C51.7859 36.1422 51.5973 35.9776 51.4506 35.7717C51.3248 35.5453 51.22 35.3085 51.1362 35.0615C51.0733 34.8145 51.0314 34.5674 51.0105 34.3204C50.9895 34.0528 50.9686 33.8058 50.9476 33.5793C50.8848 32.9 50.8428 32.2722 50.8219 31.6958C50.8219 31.0988 50.8219 30.4606 50.8219 29.7813V25.3348Z" fill="white"/>
<path d="M77.9246 24.4702C78.0922 24.7584 78.176 25.0672 78.176 25.3966C78.197 25.7259 78.1236 26.0347 77.956 26.3229C77.7674 26.6935 77.495 26.9508 77.1387 27.0949C76.8034 27.2184 76.4262 27.2287 76.0071 27.1258C75.8185 27.0846 75.6508 27.0125 75.5041 26.9096C75.3575 26.8067 75.2003 26.7038 75.0326 26.6008C74.8859 26.4773 74.7078 26.3641 74.4983 26.2612C74.3097 26.1582 74.0582 26.0862 73.7438 26.045C73.4295 26.0039 73.0837 26.0039 72.7065 26.045C72.3503 26.0862 72.0255 26.1685 71.7321 26.2921C71.271 26.5185 70.9043 26.8684 70.6319 27.3419C70.3595 27.7948 70.1813 28.2888 70.0975 28.8241C70.0137 29.3387 70.0242 29.8636 70.1289 30.3989C70.2547 30.9341 70.4852 31.387 70.8205 31.7575C71.072 32.0457 71.3968 32.2824 71.7949 32.4677C72.2141 32.653 72.6122 32.7662 72.9894 32.8074C73.3457 32.8485 73.7019 32.8485 74.0582 32.8074C74.4144 32.7456 74.7602 32.6633 75.0955 32.5604C75.347 32.4574 75.6299 32.3236 75.9442 32.1589C76.2586 31.9737 76.5624 31.8604 76.8558 31.8193C77.233 31.8193 77.5264 31.9222 77.7359 32.1281C77.9455 32.3133 78.0922 32.5501 78.176 32.8383C78.2598 33.1059 78.2703 33.3941 78.2075 33.7029C78.1656 34.0116 78.0503 34.2792 77.8617 34.5057C77.6102 34.8145 77.254 35.113 76.7929 35.4012C76.3319 35.6688 75.8918 35.8643 75.4727 35.9878C74.9698 36.1525 74.404 36.2452 73.7753 36.2658C73.1676 36.2863 72.5913 36.2658 72.0464 36.204C71.7949 36.1628 71.533 36.1114 71.2606 36.0496C70.9881 35.9878 70.7262 35.9158 70.4747 35.8335C69.5527 35.5041 68.7773 35.0409 68.1486 34.4439C67.5409 33.8264 67.0694 33.1367 66.7341 32.3751C66.4197 31.6134 66.2416 30.8003 66.1997 29.9357C66.1578 29.0711 66.2626 28.2168 66.514 27.3728C66.7446 26.57 67.0275 25.8906 67.3628 25.3348C67.719 24.779 68.1276 24.3261 68.5887 23.9762C69.0707 23.6056 69.605 23.3174 70.1918 23.1116C70.7786 22.8851 71.4282 22.6896 72.1407 22.5249C72.8742 22.3808 73.6495 22.3808 74.4668 22.5249C75.2841 22.669 76.0176 22.9366 76.6672 23.3277C77.1701 23.5953 77.5893 23.9762 77.9246 24.4702Z" fill="white"/>
<path d="M93.0101 30.2754C93.0311 30.6871 93.0416 31.1194 93.0416 31.5722C93.0416 32.0045 93.0311 32.406 93.0101 32.7765C92.9892 33.3323 92.9577 33.847 92.9158 34.3204C92.8739 34.7733 92.7901 35.1644 92.6644 35.4938C92.5386 35.8026 92.3396 36.0393 92.0671 36.204C91.8157 36.3481 91.4594 36.3893 90.9984 36.3275C90.5164 36.2658 90.1706 36.0393 89.9611 35.6482C89.7515 35.2571 89.6048 34.8145 89.521 34.3204C89.4581 33.8058 89.4371 33.2911 89.4581 32.7765C89.4791 32.2619 89.4791 31.8604 89.4581 31.5722C89.4371 31.1194 89.4162 30.6047 89.3952 30.0283C89.3952 29.4313 89.3324 28.8755 89.2066 28.3609C89.1019 27.8257 88.9133 27.3728 88.6408 27.0023C88.3684 26.6317 87.9598 26.4361 87.4149 26.4156C86.7234 26.3744 86.189 26.4259 85.8118 26.57C85.4555 26.7141 85.1936 26.9302 85.0259 27.2184C84.8583 27.486 84.7535 27.8154 84.7116 28.2065C84.6906 28.5976 84.6487 29.0196 84.5858 29.4725L84.5544 30.6768V32.9309C84.5544 33.3014 84.5439 33.6926 84.523 34.1043C84.523 34.4954 84.4601 34.8556 84.3344 35.185C84.2086 35.5144 84.0096 35.7923 83.7371 36.0187C83.4857 36.2452 83.1085 36.3584 82.6055 36.3584C81.9768 36.3584 81.5053 36.1628 81.191 35.7717C80.8976 35.36 80.7509 34.8556 80.7509 34.2587V16.5036C80.7509 16.3801 80.7509 16.2669 80.7509 16.164C80.7719 16.0404 80.7928 15.9169 80.8138 15.7934C80.8557 15.6699 80.8871 15.5567 80.9081 15.4538C80.929 15.3302 80.9605 15.217 81.0024 15.1141C81.0652 14.9082 81.17 14.7538 81.3167 14.6509C81.4215 14.548 81.5263 14.4656 81.6311 14.4039C81.7358 14.3421 81.8511 14.301 81.9768 14.2804C82.0816 14.2598 82.1969 14.2495 82.3226 14.2495C82.4483 14.2289 82.5741 14.2186 82.6998 14.2186C83.0141 14.2186 83.318 14.3113 83.6114 14.4965C83.7371 14.5789 83.8524 14.6715 83.9572 14.7744C84.062 14.8568 84.1458 14.9803 84.2086 15.145C84.3763 15.5361 84.4601 15.9066 84.4601 16.2566C84.4811 16.3595 84.4915 16.5139 84.4915 16.7198C84.5125 16.905 84.523 17.1006 84.523 17.3065C84.523 17.5123 84.523 17.7182 84.523 17.924C84.5439 18.1093 84.5544 18.2534 84.5544 18.3563V18.5107C84.5754 19.1694 84.5858 19.8385 84.5858 20.5178C84.5858 21.1971 84.5858 21.8867 84.5858 22.5866V23.1116C85.466 22.8234 86.3881 22.6896 87.352 22.7102C88.316 22.7102 89.1752 22.8954 89.9296 23.266C90.705 23.6571 91.2918 24.0997 91.6899 24.5937C92.109 25.0878 92.4129 25.6333 92.6015 26.2303C92.7901 26.8273 92.8949 27.4654 92.9158 28.1448C92.9577 28.8241 92.9892 29.5343 93.0101 30.2754Z" fill="white"/>
<path d="M102.639 25.3348C102.639 24.8614 102.628 24.357 102.607 23.8218C102.607 23.2866 102.702 22.8028 102.89 22.3705C103.058 21.9794 103.33 21.7015 103.707 21.5368C104.106 21.3515 104.493 21.3103 104.871 21.4133C105.248 21.475 105.541 21.5882 105.751 21.7529C105.96 21.9176 106.107 22.1132 106.191 22.3396C106.296 22.5455 106.358 22.7925 106.379 23.0807C106.4 23.3483 106.421 23.6159 106.442 23.8835C106.652 23.513 106.914 23.2145 107.228 22.9881C107.542 22.7616 107.867 22.5764 108.203 22.4323C108.538 22.2882 108.852 22.1852 109.146 22.1235C109.46 22.0617 109.701 22.0308 109.869 22.0308C110.665 22.0308 111.451 22.2058 112.226 22.5558C113.022 22.8851 113.683 23.3586 114.206 23.9762C114.5 24.3467 114.72 24.7378 114.867 25.1496C115.034 25.5407 115.149 25.9524 115.212 26.3847C115.296 26.817 115.349 27.2596 115.369 27.7125C115.39 28.1447 115.411 28.5873 115.432 29.0402C115.537 30.3577 115.537 31.6649 115.432 32.9618C115.411 33.2294 115.401 33.5382 115.401 33.8881C115.401 34.2381 115.369 34.588 115.307 34.938C115.265 35.2674 115.17 35.5658 115.024 35.8335C114.898 36.0805 114.678 36.2349 114.364 36.2966C113.924 36.3996 113.557 36.4201 113.263 36.3584C112.991 36.3172 112.771 36.2246 112.603 36.0805C112.436 35.9364 112.31 35.7511 112.226 35.5247C112.142 35.2982 112.069 35.0409 112.006 34.7527C111.964 34.5263 111.922 34.269 111.88 33.9808C111.859 33.672 111.838 33.3632 111.817 33.0544C111.817 32.7456 111.807 32.4471 111.786 32.1589C111.786 31.8501 111.786 31.5722 111.786 31.3252C111.786 30.9341 111.776 30.5018 111.755 30.0283C111.734 29.5549 111.734 29.1123 111.755 28.7006C111.755 27.733 111.493 27.0023 110.969 26.5082C110.466 25.9936 109.774 25.7774 108.894 25.8598C108.223 25.9421 107.637 26.2097 107.134 26.6626C106.631 27.0949 106.39 27.661 106.411 28.3609C106.411 28.6285 106.411 28.8755 106.411 29.102C106.411 29.3284 106.4 29.5549 106.379 29.7813C106.379 30.0077 106.379 30.2548 106.379 30.5224C106.379 30.79 106.379 31.0885 106.379 31.4179C106.379 32.0972 106.379 32.8177 106.379 33.5793C106.379 34.3204 106.285 34.9277 106.096 35.4012C105.929 35.8952 105.646 36.2349 105.248 36.4201C104.85 36.6054 104.378 36.554 103.833 36.2658C103.603 36.1422 103.414 35.9776 103.267 35.7717C103.142 35.5453 103.037 35.3085 102.953 35.0615C102.89 34.8145 102.848 34.5674 102.827 34.3204C102.806 34.0528 102.785 33.8058 102.764 33.5793C102.702 32.9 102.66 32.2722 102.639 31.6958C102.639 31.0988 102.639 30.4606 102.639 29.7813V25.3348Z" fill="white"/>
<path d="M122.103 22.4014C122.795 22.072 123.517 21.8353 124.272 21.6912C125.026 21.5471 125.77 21.5162 126.504 21.5985C127.258 21.6809 127.981 21.8764 128.673 22.1852C129.385 22.494 130.035 22.9263 130.622 23.4821C131.104 23.9556 131.523 24.532 131.879 25.2113C132.235 25.87 132.497 26.5185 132.665 27.1566C133.021 28.2888 133.073 29.4313 132.822 30.5841C132.57 31.7369 132.141 32.8074 131.533 33.7955C131.24 34.2484 130.873 34.6601 130.433 35.0306C130.014 35.3806 129.563 35.6688 129.081 35.8952C128.453 36.1834 127.772 36.379 127.038 36.4819C126.305 36.6054 125.592 36.6363 124.901 36.5745C123.643 36.5128 122.533 36.204 121.569 35.6482C120.626 35.0924 119.861 34.3822 119.274 33.5176C118.708 32.653 118.331 31.6752 118.142 30.5841C117.975 29.4725 118.048 28.3403 118.362 27.1875C118.698 25.9524 119.18 24.954 119.808 24.1923C120.458 23.4101 121.223 22.8131 122.103 22.4014ZM123.046 26.5391C122.732 26.8273 122.491 27.1875 122.323 27.6198C122.155 28.0521 122.051 28.505 122.009 28.9785C121.967 29.4313 121.998 29.8945 122.103 30.368C122.229 30.8209 122.417 31.2326 122.669 31.6031C122.878 31.9119 123.256 32.1692 123.8 32.3751C124.345 32.5809 124.911 32.7045 125.498 32.7456C126.168 32.7868 126.755 32.6118 127.258 32.2207C127.761 31.809 128.138 31.3046 128.39 30.7077C128.662 30.1107 128.788 29.4622 128.767 28.7623C128.746 28.0624 128.557 27.4243 128.201 26.8479C127.95 26.4361 127.593 26.1377 127.132 25.9524C126.692 25.7465 126.221 25.6436 125.718 25.6436C125.236 25.623 124.754 25.6951 124.272 25.8598C123.79 26.0039 123.381 26.2303 123.046 26.5391Z" fill="white"/>
<path fill-rule="evenodd" clip-rule="evenodd" d="M99.5076 26.6008V24.6555C99.5076 24.4085 99.4971 24.1409 99.4762 23.8527C99.4762 23.5439 99.4552 23.2557 99.4133 22.9881C99.3924 22.6999 99.3609 22.4426 99.319 22.2161C99.2771 21.9897 99.2142 21.8147 99.1304 21.6912C99.0047 21.5059 98.7951 21.3618 98.5017 21.2589C98.2293 21.156 97.9359 21.1045 97.6216 21.1045C97.3282 21.1045 97.0453 21.156 96.7729 21.2589C96.5005 21.3412 96.2909 21.4647 96.1442 21.6294C95.9556 21.897 95.8194 22.2367 95.7356 22.6484C95.6517 23.0395 95.5993 23.4512 95.5784 23.8835C95.5574 24.3158 95.547 24.7378 95.547 25.1496C95.5679 25.5613 95.5784 25.9112 95.5784 26.1994V27.8668V29.7195C95.5993 30.3577 95.6098 30.9856 95.6098 31.6031C95.6308 32.2207 95.6413 32.7662 95.6413 33.2397C95.6832 34.166 95.8403 34.8865 96.1128 35.4012C96.4061 35.9158 96.8777 36.1937 97.5273 36.2349C97.9674 36.2555 98.3131 36.1731 98.5646 35.9878C98.837 35.782 99.0361 35.5247 99.1618 35.2159C99.2876 34.9071 99.3714 34.5777 99.4133 34.2278C99.4552 33.8572 99.4867 33.5176 99.5076 33.2088C99.5286 32.5706 99.5391 31.881 99.5391 31.1399V28.855C99.5391 28.0727 99.5286 27.3213 99.5076 26.6008Z" fill="white"/>
<path fill-rule="evenodd" clip-rule="evenodd" d="M100.747 14.3528C101.095 14.3528 101.378 14.6302 101.378 14.9724C101.378 15.7946 101.207 17.0352 100.667 18.095C100.118 19.1743 99.1324 20.1447 97.5274 20.1447C95.9139 20.1447 94.9719 19.169 94.4829 18.0794C94.0066 17.018 93.915 15.7804 93.9671 14.9645C93.9889 14.623 94.2884 14.3635 94.6361 14.3849C94.9838 14.4063 95.248 14.7005 95.2262 15.0421C95.182 15.7335 95.2681 16.7567 95.6373 17.5794C95.9938 18.3739 96.5653 18.9054 97.5274 18.9054C98.4978 18.9054 99.1224 18.3583 99.5387 17.5406C99.965 16.7034 100.116 15.6678 100.116 14.9724C100.116 14.6302 100.398 14.3528 100.747 14.3528Z" fill="white"/>
<path fill-rule="evenodd" clip-rule="evenodd" d="M97.6453 14C97.9937 14 98.2761 14.2774 98.2761 14.6196V17.6145C98.2761 17.9567 97.9937 18.2342 97.6453 18.2342C97.297 18.2342 97.0145 17.9567 97.0145 17.6145V14.6196C97.0145 14.2774 97.297 14 97.6453 14Z" fill="white"/>
<path fill-rule="evenodd" clip-rule="evenodd" d="M133.768 33.0407C133.912 33.0574 134.015 33.1858 133.998 33.3274C133.834 34.6946 133.079 35.711 132.22 36.4201C131.363 37.1269 130.39 37.5407 129.745 37.7073C129.604 37.7435 129.46 37.6611 129.424 37.5232C129.387 37.3853 129.471 37.2441 129.611 37.2079C130.19 37.0584 131.092 36.6769 131.882 36.0248C132.669 35.3751 133.332 34.4693 133.476 33.2668C133.493 33.1252 133.624 33.0239 133.768 33.0407Z" fill="white"/>
<path fill-rule="evenodd" clip-rule="evenodd" d="M118.201 24.1075C118.062 24.0687 117.98 23.9261 118.02 23.7888C118.401 22.4639 119.309 21.5765 120.27 21.0086C121.229 20.4427 122.257 20.1841 122.921 20.1191C123.065 20.1049 123.194 20.2085 123.208 20.3504C123.223 20.4923 123.117 20.6187 122.973 20.6329C122.377 20.6912 121.426 20.929 120.541 21.4512C119.66 21.9714 118.861 22.7638 118.526 23.9292C118.486 24.0664 118.341 24.1462 118.201 24.1075Z" fill="white"/>
<path fill-rule="evenodd" clip-rule="evenodd" d="M40.3744 30.425C40.7531 29.971 40.9802 29.4281 40.9802 29.0261C40.9802 28.6475 40.802 28.3518 40.5039 28.1376C40.1965 27.9168 39.7618 27.7868 39.2981 27.7868C38.4562 27.7868 37.7737 28.4572 37.7737 29.2843C37.7737 29.7219 37.9353 30.2047 38.2093 30.5716C38.4831 30.9382 38.8301 31.1432 39.1929 31.1432C39.5451 31.1432 39.9897 30.8861 40.3744 30.425ZM39.1929 31.5562C40.2671 31.5562 41.4007 30.0812 41.4007 29.0261C41.4007 27.9709 40.3722 27.3737 39.2981 27.3737C38.2239 27.3737 37.3532 28.2291 37.3532 29.2843C37.3532 30.3394 38.1188 31.5562 39.1929 31.5562Z" fill="white"/>
<path fill-rule="evenodd" clip-rule="evenodd" d="M17 42.825C17 42.4542 17.3059 42.1537 17.6833 42.1537H50.2737C50.6511 42.1537 50.9571 42.4542 50.9571 42.825C50.9571 43.1957 50.6511 43.4962 50.2737 43.4962H17.6833C17.3059 43.4962 17 43.1957 17 42.825Z" fill="white"/>
<path fill-rule="evenodd" clip-rule="evenodd" d="M99.1067 42.8228C99.1079 42.452 99.4149 42.1525 99.7923 42.1537L132.382 42.2583C132.76 42.2595 133.065 42.5611 133.064 42.9318C133.062 43.3025 132.755 43.6021 132.378 43.6009L99.7878 43.4962C99.4104 43.495 99.1055 43.1935 99.1067 42.8228Z" fill="white"/>
<path d="M91.3951 42.1306C91.2273 42.1306 91.0889 42.1783 90.98 42.2737C90.8711 42.3691 90.8167 42.4862 90.8167 42.625V43.7051C90.8167 43.8092 90.7799 43.8843 90.7063 43.9306C90.6356 43.9769 90.5252 44 90.3751 44V42.1045C90.3751 41.8703 90.5164 41.7532 90.799 41.7532V42.0135C90.7607 42.0568 90.7269 42.1017 90.6974 42.1479L90.7195 42.1653C90.905 41.8906 91.139 41.7532 91.4216 41.7532C91.5334 41.7532 91.6188 41.7807 91.6777 41.8356C91.7395 41.8906 91.7704 41.9585 91.7704 42.0395C91.7704 42.1002 91.7542 42.1523 91.7218 42.1956C91.6394 42.1523 91.5305 42.1306 91.3951 42.1306Z" fill="white"/>
<path d="M88.3026 44C88.1231 44 87.9612 43.9653 87.8169 43.8959C87.6727 43.8265 87.5594 43.7311 87.4769 43.6096C87.3945 43.4882 87.3533 43.3523 87.3533 43.2019V42.5817C87.3533 42.4255 87.396 42.2853 87.4814 42.1609C87.5697 42.0337 87.6859 41.9339 87.8302 41.8616C87.9744 41.7894 88.1319 41.7532 88.3026 41.7532C88.4734 41.7532 88.6294 41.7879 88.7707 41.8573C88.912 41.9267 89.0238 42.0236 89.1062 42.1479C89.1887 42.2694 89.2299 42.4082 89.2299 42.5643V42.8332C89.2299 42.8824 89.2093 42.9258 89.1681 42.9634C89.1298 42.9981 89.0827 43.0154 89.0268 43.0154H87.7816V43.1802C87.7816 43.319 87.8258 43.4318 87.9141 43.5185C88.0024 43.6024 88.1319 43.6443 88.3026 43.6443C88.4734 43.6443 88.6014 43.6082 88.6868 43.5359C88.7751 43.4607 88.8192 43.3624 88.8192 43.2409C88.9252 43.2323 89.012 43.2496 89.0798 43.293C89.1475 43.3335 89.1813 43.3957 89.1813 43.4795C89.1813 43.5691 89.1401 43.6545 89.0577 43.7354C88.9782 43.8135 88.8708 43.8771 88.7353 43.9263C88.6029 43.9754 88.4586 44 88.3026 44ZM88.8281 42.6901V42.5643C88.8281 42.4284 88.7795 42.3185 88.6824 42.2347C88.5852 42.1479 88.4586 42.1045 88.3026 42.1045C88.1466 42.1045 88.02 42.1479 87.9229 42.2347C87.8287 42.3185 87.7816 42.4284 87.7816 42.5643V42.6901H88.8281Z" fill="white"/>
<path d="M85.8686 44C85.6478 44 85.4845 43.9393 85.3785 43.8178C85.2725 43.6935 85.2195 43.5316 85.2195 43.332V42.1306H84.7956C84.7956 42.0178 84.8192 41.9339 84.8663 41.879C84.9134 41.8212 84.9767 41.7922 85.0562 41.7922H85.2284V41.3975C85.2284 41.2934 85.2637 41.2183 85.3343 41.172C85.405 41.1257 85.5124 41.1026 85.6567 41.1026V41.7922H86.2439C86.2439 41.9079 86.2189 41.9932 86.1688 42.0482C86.1217 42.1031 86.0467 42.1306 85.9437 42.1306H85.6655V43.3147C85.6655 43.4246 85.6861 43.5041 85.7273 43.5532C85.7685 43.5995 85.8421 43.6226 85.9481 43.6226C86.0511 43.6226 86.1512 43.5952 86.2483 43.5402C86.2954 43.5865 86.319 43.6443 86.319 43.7137C86.319 43.7889 86.2792 43.8554 86.1998 43.9132C86.1203 43.9711 86.0099 44 85.8686 44Z" fill="white"/>
<path d="M81.8339 42.1045C81.8339 41.8703 81.9752 41.7532 82.2578 41.7532V42.0265C82.2284 42.0554 82.196 42.0959 82.1607 42.1479L82.1827 42.1653C82.2711 42.0409 82.3844 41.9412 82.5227 41.866C82.664 41.7908 82.8171 41.7532 82.9819 41.7532C83.2174 41.7532 83.4044 41.8241 83.5427 41.9657C83.6811 42.1045 83.7502 42.2838 83.7502 42.5036V43.7051C83.7502 43.8063 83.7134 43.8814 83.6399 43.9306C83.5692 43.9769 83.4603 44 83.3131 44V42.5556C83.3131 42.4284 83.2748 42.3258 83.1983 42.2477C83.1218 42.1696 83.0099 42.1306 82.8627 42.1306C82.7597 42.1306 82.6626 42.1537 82.5713 42.2C82.4801 42.2433 82.4079 42.3026 82.3549 42.3778C82.302 42.453 82.2755 42.5354 82.2755 42.625V43.7051C82.2755 43.8092 82.2387 43.8843 82.1651 43.9306C82.0944 43.9769 81.9841 44 81.8339 44V42.1045Z" fill="white"/>
<path d="M79.7615 44C79.5819 44 79.42 43.9653 79.2757 43.8959C79.1315 43.8265 79.0182 43.7311 78.9358 43.6096C78.8533 43.4882 78.8121 43.3523 78.8121 43.2019V42.5817C78.8121 42.4255 78.8548 42.2853 78.9402 42.1609C79.0285 42.0337 79.1448 41.9339 79.289 41.8616C79.4332 41.7894 79.5907 41.7532 79.7615 41.7532C79.9322 41.7532 80.0882 41.7879 80.2295 41.8573C80.3708 41.9267 80.4826 42.0236 80.5651 42.1479C80.6475 42.2694 80.6887 42.4082 80.6887 42.5643V42.8332C80.6887 42.8824 80.6681 42.9258 80.6269 42.9634C80.5886 42.9981 80.5415 43.0154 80.4856 43.0154H79.2404V43.1802C79.2404 43.319 79.2846 43.4318 79.3729 43.5185C79.4612 43.6024 79.5907 43.6443 79.7615 43.6443C79.9322 43.6443 80.0602 43.6082 80.1456 43.5359C80.2339 43.4607 80.2781 43.3624 80.2781 43.2409C80.384 43.2323 80.4709 43.2496 80.5386 43.293C80.6063 43.3335 80.6401 43.3957 80.6401 43.4795C80.6401 43.5691 80.5989 43.6545 80.5165 43.7354C80.437 43.8135 80.3296 43.8771 80.1942 43.9263C80.0617 43.9754 79.9175 44 79.7615 44ZM80.2869 42.6901V42.5643C80.2869 42.4284 80.2383 42.3185 80.1412 42.2347C80.044 42.1479 79.9175 42.1045 79.7615 42.1045C79.6054 42.1045 79.4789 42.1479 79.3817 42.2347C79.2875 42.3185 79.2404 42.4284 79.2404 42.5643V42.6901H80.2869Z" fill="white"/>
<path d="M76.5197 44C76.2666 44 76.0414 43.9537 75.8441 43.8612C75.6469 43.7658 75.4938 43.6342 75.3849 43.4665C75.276 43.2988 75.2216 43.1079 75.2216 42.894V41.9831C75.2216 41.7691 75.276 41.5797 75.3849 41.4149C75.4938 41.2472 75.6454 41.1171 75.8397 41.0245C76.034 40.932 76.2562 40.8857 76.5065 40.8857C76.7567 40.8857 76.9789 40.9248 77.1732 41.0028C77.3704 41.078 77.5235 41.1836 77.6324 41.3195C77.7413 41.4554 77.7958 41.6115 77.7958 41.7879C77.7958 41.8804 77.7649 41.9542 77.703 42.0091C77.6412 42.0612 77.5588 42.0872 77.4558 42.0872C77.4175 42.0872 77.3734 42.0829 77.3233 42.0742C77.3292 42.0279 77.3321 41.9686 77.3321 41.8963C77.3321 41.7778 77.2968 41.6737 77.2262 41.584C77.1555 41.4915 77.0569 41.4207 76.9303 41.3715C76.8067 41.3195 76.6654 41.2934 76.5065 41.2934C76.3504 41.2934 76.2106 41.3224 76.087 41.3802C75.9634 41.438 75.8662 41.5204 75.7956 41.6274C75.7279 41.7315 75.694 41.8501 75.694 41.9831V42.894C75.694 43.0299 75.7293 43.1513 75.8 43.2583C75.8706 43.3624 75.9678 43.4448 76.0914 43.5055C76.218 43.5634 76.3607 43.5923 76.5197 43.5923C76.767 43.5923 76.9671 43.5373 77.1202 43.4275C77.2762 43.3147 77.3542 43.1687 77.3542 42.9894C77.3542 42.9344 77.3513 42.8752 77.3454 42.8115C77.3866 42.8029 77.4263 42.7985 77.4646 42.7985C77.5706 42.7985 77.6559 42.8274 77.7207 42.8853C77.7855 42.9431 77.8179 43.0212 77.8179 43.1195C77.8179 43.2901 77.7634 43.4434 77.6545 43.5793C77.5456 43.7123 77.3925 43.8164 77.1953 43.8916C76.998 43.9639 76.7729 44 76.5197 44Z" fill="white"/>
<path d="M70.3537 41.2371C70.3537 41.1243 70.3905 41.0375 70.4641 40.9768C70.5406 40.9161 70.651 40.8857 70.7953 40.8857V42.0221C70.7629 42.0539 70.729 42.0959 70.6937 42.1479L70.7158 42.1653C70.807 42.0409 70.9204 41.9412 71.0558 41.866C71.1912 41.7908 71.3398 41.7532 71.5017 41.7532C71.7372 41.7532 71.9241 41.8241 72.0625 41.9657C72.2008 42.1045 72.27 42.2838 72.27 42.5036V43.705C72.27 43.8063 72.2332 43.8814 72.1596 43.9306C72.089 43.9769 71.9801 44 71.8329 44V42.5556C71.8329 42.4284 71.7946 42.3257 71.7181 42.2477C71.6416 42.1696 71.5297 42.1306 71.3825 42.1306C71.2795 42.1306 71.1823 42.1537 71.0911 42.2C70.9998 42.2433 70.9277 42.3026 70.8747 42.3778C70.8217 42.453 70.7953 42.5354 70.7953 42.625V43.705C70.7953 43.8063 70.7585 43.8814 70.6849 43.9306C70.6113 43.9769 70.5009 44 70.3537 44V41.2371Z" fill="white"/>
<path d="M68.3285 44C68.146 44 67.9826 43.9682 67.8383 43.9046C67.697 43.8381 67.5867 43.747 67.5072 43.6313C67.4277 43.5128 67.388 43.3783 67.388 43.2279V42.5556C67.388 42.3995 67.4262 42.2607 67.5028 42.1392C67.5822 42.0178 67.6926 41.9238 67.8339 41.8573C67.9782 41.7879 68.1415 41.7532 68.324 41.7532C68.4948 41.7532 68.6464 41.7778 68.7788 41.8269C68.9113 41.8732 69.0143 41.9397 69.0879 42.0265C69.1645 42.1132 69.2027 42.213 69.2027 42.3258C69.2027 42.4067 69.1689 42.4718 69.1012 42.5209C69.0335 42.5672 68.9481 42.5874 68.8451 42.5817C68.8451 42.4486 68.7965 42.3402 68.6994 42.2564C68.6052 42.1725 68.483 42.1306 68.3329 42.1306C68.1828 42.1306 68.0606 42.171 67.9664 42.252C67.8722 42.333 67.8251 42.4385 67.8251 42.5686V43.2019C67.8251 43.3263 67.8722 43.4275 67.9664 43.5055C68.0635 43.5836 68.1886 43.6226 68.3417 43.6226C68.4918 43.6226 68.614 43.5807 68.7082 43.4969C68.8053 43.413 68.8539 43.306 68.8539 43.1759C68.9599 43.1672 69.0467 43.186 69.1144 43.2323C69.1821 43.2785 69.216 43.3422 69.216 43.4231C69.216 43.5359 69.1777 43.6357 69.1012 43.7224C69.0276 43.8092 68.9231 43.8771 68.7877 43.9263C68.6523 43.9754 68.4992 44 68.3285 44Z" fill="white"/>
<path d="M64.2988 42.1045C64.2988 41.8703 64.4401 41.7532 64.7227 41.7532V42.0265C64.6933 42.0554 64.6609 42.0959 64.6256 42.1479L64.6476 42.1653C64.736 42.0409 64.8493 41.9412 64.9876 41.866C65.1289 41.7908 65.282 41.7532 65.4468 41.7532C65.6823 41.7532 65.8693 41.8241 66.0076 41.9657C66.146 42.1045 66.2151 42.2838 66.2151 42.5036V43.7051C66.2151 43.8063 66.1783 43.8814 66.1048 43.9306C66.0341 43.9769 65.9252 44 65.778 44V42.5556C65.778 42.4284 65.7397 42.3258 65.6632 42.2477C65.5867 42.1696 65.4748 42.1306 65.3276 42.1306C65.2246 42.1306 65.1275 42.1537 65.0362 42.2C64.945 42.2433 64.8728 42.3026 64.8199 42.3778C64.7669 42.453 64.7404 42.5354 64.7404 42.625V43.7051C64.7404 43.8092 64.7036 43.8843 64.63 43.9306C64.5593 43.9769 64.449 44 64.2988 44V42.1045Z" fill="white"/>
<path d="M62.0022 44C61.7579 44 61.5577 43.9349 61.4017 43.8048C61.2457 43.6718 61.1677 43.4954 61.1677 43.2757C61.1677 43.053 61.2501 42.8752 61.4149 42.7421C61.5798 42.6091 61.7932 42.5426 62.0552 42.5426C62.3319 42.5426 62.56 42.6352 62.7396 42.8202L62.7572 42.8029C62.719 42.7624 62.6792 42.7248 62.638 42.6901V42.5426C62.638 42.4038 62.5924 42.2968 62.5011 42.2217C62.4099 42.1436 62.2818 42.1045 62.117 42.1045C61.8197 42.1045 61.6048 42.2173 61.4723 42.4429C61.4164 42.4197 61.3708 42.3879 61.3355 42.3474C61.3031 42.3041 61.2869 42.2607 61.2869 42.2173C61.2869 42.1364 61.3266 42.0612 61.4061 41.9918C61.4856 41.9195 61.5916 41.8616 61.724 41.8183C61.8565 41.7749 61.9978 41.7532 62.1479 41.7532C62.4364 41.7532 62.663 41.8226 62.8279 41.9614C62.9927 42.1002 63.0752 42.2896 63.0752 42.5296V43.6834C63.0752 43.7932 63.0413 43.8742 62.9736 43.9263C62.9059 43.9754 62.8014 44 62.6601 44V43.8048C62.7219 43.7383 62.7558 43.7007 62.7617 43.692L62.744 43.6747C62.6469 43.7846 62.5379 43.867 62.4173 43.9219C62.2995 43.974 62.1612 44 62.0022 44ZM62.0949 43.6704C62.2686 43.6704 62.404 43.6357 62.5011 43.5663C62.5983 43.4969 62.6469 43.4 62.6469 43.2757C62.6469 43.1513 62.5983 43.053 62.5011 42.9807C62.404 42.9084 62.2715 42.8723 62.1038 42.8723C61.9477 42.8723 61.8241 42.9084 61.7329 42.9807C61.6416 43.053 61.596 43.1513 61.596 43.2757C61.596 43.4 61.6401 43.4969 61.7284 43.5663C61.8167 43.6357 61.9389 43.6704 62.0949 43.6704Z" fill="white"/>
<path d="M58.4869 43.961C58.4192 43.961 58.3603 43.9378 58.3103 43.8916C58.2632 43.8424 58.2396 43.7846 58.2396 43.7181V41.2544C58.2396 41.0086 58.3986 40.8857 58.7165 40.8857V43.5532H60.0147C60.1295 43.5532 60.2178 43.5879 60.2796 43.6573C60.3414 43.7267 60.3723 43.8279 60.3723 43.961H58.4869Z" fill="white"/>
<g clip-path="url(#clip1_14_360)">
<path d="M325.044 20.1333C324.444 18.7138 323.953 17.5848 323.549 17.0539L322.685 15.9218L321.98 17.1566C321.735 17.5883 321.653 18.2243 321.571 18.8544C321.449 19.8213 321.31 20.9155 320.519 21.4337C320.448 21.4799 320.373 21.5188 320.294 21.5499C319.848 21.7232 319.425 21.4858 318.65 20.8839C317.923 20.3187 317.1 19.6766 316.054 20.0833C315.878 20.1517 315.705 20.2477 315.524 20.3764C314.967 20.7749 314.364 21.1026 313.726 21.352C311.364 22.2703 309.17 21.8424 308.071 21.5045L307.298 21.2691L306.947 21.9957C305.331 25.326 301.595 27.4085 298.745 28.569L298.252 28.7694L298.17 29.2957C297.777 31.7955 294.91 33.9207 292.609 35.6274C291.482 36.4649 290.415 37.2574 289.755 37.9954C288.692 39.1867 289.936 40.7424 291.253 42.3892L291.859 43.1453L326.028 22.4028L325.696 21.6453C325.473 21.1408 325.256 20.6338 325.044 20.1333ZM336.866 3.72338C336.65 3.51115 336.155 3.20744 335.301 3.53955C334.716 3.7672 333.956 4.28938 333.319 4.90007L333.207 5.00775L333.053 5.32442C332.511 6.30722 333.352 7.41387 334.7 8.98887C335.582 10.0182 336.581 11.1856 336.467 12.0209C336.426 12.3261 336.238 12.5889 335.89 12.8238C335.715 12.9417 335.544 13.0325 335.381 13.0961C335.121 13.2102 334.831 13.2326 334.557 13.1596C333.649 12.8943 333.042 11.4974 332.454 10.1471C331.74 8.50396 331.321 7.70919 330.539 7.50036L330.142 7.48913L329.953 7.56277C329.829 7.6109 329.701 7.68365 329.585 7.77132C328.091 8.86946 328.88 9.95514 329.512 10.8265C330.314 11.9355 330.576 12.5689 329.998 13.3962C329.75 13.7519 329.486 13.9856 329.215 14.0911C328.735 14.2778 328.201 14.0795 327.728 13.9043C327.179 13.7016 326.612 13.4915 326.033 13.7167C325.691 13.8495 325.47 14.0908 325.333 14.2612L325.126 14.5211L325.127 14.8528C325.129 15.4877 325.601 16.1247 327.791 18.4425C328.186 18.8587 328.588 19.2898 328.982 19.725L329.475 20.2672L330.123 19.9242C331.248 19.3269 341.147 14.0318 341.552 11.8463C341.763 9.56279 337.55 4.39074 336.866 3.72338ZM287.682 42.3097C287.124 41.0689 286.703 40.1582 286.354 39.741L285.909 39.2074L285.269 39.4747C284.782 39.6769 284.025 40.286 283.475 40.7621C282.775 41.365 281.981 42.0486 281.208 42.349C281.04 42.4144 280.876 42.4612 280.72 42.4861C280.049 42.5918 279.734 42.1742 279.239 41.1355C278.901 40.4246 278.479 39.5412 277.569 39.6474C277.397 39.6661 277.228 39.7072 277.067 39.7695C276.684 39.9187 276.387 40.1625 276.003 40.4913C275.728 40.7264 275.388 41.0198 274.969 41.2254L274.751 41.3458C274.512 41.4387 273.701 41.8082 273.325 42.6555C273.053 43.2655 273.075 43.9679 273.393 44.7437C275.149 49.0668 277.035 51.1536 278.998 50.9461C279.416 50.9016 279.91 50.768 280.507 50.536C282.928 49.5946 286.665 47.1441 288.492 45.8437L289.16 45.3673L288.782 44.6407C288.394 43.8744 288.027 43.097 287.682 42.3097Z" fill="#FFA963"/>
<path d="M292.022 47.8885C291.67 48.0252 291.31 48.0412 290.953 47.9393C289.509 47.5234 288.39 45.2538 287.18 42.5523C286.692 41.4624 286.029 39.9887 285.729 39.9286C285.64 39.9395 285.553 39.9623 285.47 39.9964C285.012 40.1744 284.447 40.6623 283.848 41.1774C283.106 41.8164 282.273 42.5334 281.412 42.8684C281.207 42.9478 281.004 43.0041 280.81 43.0355C279.619 43.2247 279.13 42.2009 278.736 41.3792C278.272 40.4055 278.036 40.1526 277.631 40.199C277.509 40.2136 277.389 40.2438 277.275 40.2888C276.947 40.4163 276.656 40.6661 276.376 40.9078C275.986 41.2444 275.554 41.6176 274.914 41.8664C274.329 42.094 273.659 42.1791 272.864 42.1277C272.156 42.0826 271.576 41.7895 271.146 41.2568C270.096 39.9564 270.254 37.5737 270.328 36.8754L270.402 36.1469L271.13 36.0405C271.393 36.0023 271.535 35.9827 271.686 35.9442C271.857 35.8988 272.015 35.849 272.161 35.7922C273.47 35.283 273.62 34.377 273.753 33.577C273.862 32.9291 273.962 32.3187 274.615 32.065C275.815 31.7336 276.239 32.6488 276.579 33.3831C276.989 34.2653 277.344 34.8984 278.184 35.0106C278.397 35.0473 278.615 35.029 278.819 34.9576C279.05 34.8676 279.257 34.6691 279.451 34.3483L279.828 33.726L280.524 33.934C281.679 34.2742 284.824 34.8884 289.058 33.2419C290.468 32.6937 291.876 31.9353 293.243 30.9876C293.752 30.6347 294.215 30.2966 294.646 29.9663L294.757 29.8818L295.101 29.7736C295.41 29.7021 296.43 26.6135 297.511 26.2416L299.205 28.4615L298.47 30.3574C297.59 32.6264 295.024 34.5303 292.963 36.0612C291.844 36.8912 290.794 37.6698 290.173 38.3659C289.534 39.0802 290.127 40.0868 291.604 41.9375C292.693 43.2957 293.818 44.7033 293.613 46.03C293.516 46.6663 293.132 47.2003 292.441 47.6657C292.31 47.7546 292.169 47.8302 292.022 47.8885Z" fill="#F9C900"/>
<path d="M336.861 3.72102C336.653 3.51677 336.163 3.20866 335.297 3.54558C334.888 3.70441 334.407 4.00558 333.925 4.37828C335.663 6.97986 336.962 9.62405 336.242 11.0723C336.419 11.4168 336.502 11.7407 336.47 12.024C336.43 12.3245 336.233 12.5865 335.895 12.8176C335.716 12.9441 335.54 13.041 335.379 13.1036C335.12 13.2178 334.828 13.2351 334.557 13.1524C334.377 13.1015 334.21 13.0105 334.069 12.8862C332.512 13.9761 330.084 15.647 327.063 17.6624C327.285 17.9038 327.529 18.1652 327.795 18.4464C328.186 18.8646 328.594 19.2903 328.977 19.7256L329.474 20.273L330.122 19.9216C331.245 19.3282 341.139 14.0275 341.545 11.8462C341.769 9.56449 337.55 4.39361 336.861 3.72102ZM325.044 20.129C324.916 19.8367 324.788 19.5445 324.682 19.2722C315.224 25.5859 301.6 34.4885 290.958 41.0916C291.148 41.3598 291.355 41.6356 291.601 41.9389C291.847 42.2421 292.098 42.5578 292.332 42.8659L326.026 22.3977L325.69 21.6447C325.48 21.142 325.253 20.6317 325.044 20.129ZM276.188 49.6132C277.099 50.5987 278.037 51.0319 278.999 50.9426C279.414 50.9096 279.916 50.7714 280.51 50.5404C282.936 49.597 286.672 47.1471 288.487 45.8426L288.723 45.6797C288.306 44.9727 287.895 44.1351 287.484 43.226C282.393 46.3312 278.296 48.6939 276.188 49.6132Z" fill="#F49853"/>
<path d="M330.456 26.965C330.003 27.1412 329.565 27.169 329.115 27.046C327.284 26.5498 325.957 23.7241 324.532 20.3595C323.898 18.8533 323.241 17.2961 322.821 17.1317C322.389 17.3039 322.268 17.7985 322.126 18.9151C321.988 20.0064 321.829 21.2407 320.821 21.9021C320.727 21.9643 320.623 22.0203 320.516 22.0622C319.678 22.388 318.981 21.8466 318.308 21.3246C317.543 20.7314 316.95 20.3338 316.264 20.6004C316.115 20.6604 315.975 20.738 315.845 20.8316C315.252 21.2556 314.609 21.6043 313.93 21.8697C312.087 22.5864 310.344 22.5202 309.207 22.338L305.869 21.5357L309.01 20.5295C311.575 19.5179 313.608 18.1389 315.05 16.4298L315.211 16.239L315.764 16.034C317.734 15.2678 324.27 12.3291 325.492 6.7509L325.57 6.40981L325.848 6.1994C326.345 5.82636 326.64 5.4494 326.749 5.04374C326.993 4.14242 326.35 3.17826 325.834 2.40548C325.693 2.19663 325.558 1.98353 325.429 1.76647L324.418 -0.0121942L326.427 0.373981C326.69 0.424128 327.07 0.544218 327.35 0.637689C328.163 0.904278 329.172 1.23614 330.132 0.862648C330.776 0.61237 331.366 0.0510521 331.885 -0.807896C331.912 -0.875218 331.938 -0.929476 331.971 -0.987857L332.663 -2.23458L333.538 -1.1044C334.866 0.610743 334.938 2.78752 333.745 5.18786L333.629 5.38701L333.54 5.59825C333.178 6.26487 334.004 7.31713 335.122 8.62378C336.321 10.0244 337.157 11.0913 337.021 12.0963C336.955 12.5709 336.687 12.96 336.201 13.2858C335.993 13.4264 335.786 13.5383 335.584 13.6168C334.966 13.8574 334.545 13.7359 334.405 13.6961C333.243 13.3559 332.553 11.7729 331.946 10.3748C331.476 9.29784 330.996 8.19739 330.47 8.05591C330.364 8.03134 330.253 8.04151 330.153 8.08491C330.068 8.1194 329.987 8.16507 329.914 8.22071C328.965 8.92037 329.185 9.42589 329.961 10.4979C330.583 11.3575 331.355 12.4226 330.456 13.7156C330.133 14.1789 329.803 14.4655 329.413 14.6171C328.747 14.8761 328.164 14.6595 327.545 14.4313C327.125 14.2753 326.611 14.0861 326.234 14.2329C326.073 14.2955 325.921 14.4186 325.77 14.6085C325.388 15.0877 326.875 16.6614 328.187 18.0493C330.215 20.1947 332.499 22.6067 332.322 24.662C332.258 25.3993 331.879 26.0315 331.194 26.5457C330.968 26.7179 330.72 26.859 330.456 26.965Z" fill="#F9C900"/>
<path d="M316.322 14.5499C316.485 14.24 316.642 13.9241 316.775 13.5887L316.904 13.2607L317.216 13.0994C317.836 12.7771 318.243 12.3682 318.46 11.8504C318.917 10.7553 318.435 9.47502 318.208 8.9761L318.037 8.60942L318.188 8.23279C318.384 7.74757 318.376 7.17357 318.354 6.62928C318.322 5.88658 318.328 5.52803 318.531 5.20689L318.557 5.16522L318.666 5.03038L318.838 4.90206L319.069 4.78098C319.895 4.45995 320.504 5.07208 321.15 5.72032C322.136 6.71345 323.005 7.43439 324.463 6.94017L326.371 6.29517L325.646 8.17297C324.106 12.1659 319.926 14.6861 317.572 15.8354L314.987 17.0939L316.322 14.5499Z" fill="#A02E14"/>
<path d="M309.103 21.0676C306.045 22.2564 303.026 22.6751 301.496 22.8196L300.262 22.9362L300.479 21.7145C300.599 21.051 300.15 20.396 299.755 19.8187C299.188 18.9934 298.929 18.6168 298.986 18.1443L299.06 17.5284L299.652 17.3521C299.98 17.2532 300.329 17.3029 301.146 17.4911C301.815 17.6441 302.822 17.875 303.621 17.5646C303.773 17.5054 303.916 17.4269 304.046 17.3322L304.38 17.0841L304.79 17.164C305.193 17.2456 306.237 17.3894 307.21 17.0111C307.421 16.9293 307.62 16.8249 307.797 16.703C308.587 16.1681 309.057 15.2527 309.202 13.9824C309.329 12.8429 309.608 12.2157 310.105 11.9512L310.109 11.9497C310.839 11.6658 311.518 11.9945 312.565 12.5524C313.556 13.0789 314.675 13.6728 315.813 13.5592L317.592 13.3806L316.734 14.9496C316.378 15.6012 316.017 16.1492 315.627 16.6254C314.102 18.4824 311.908 19.977 309.103 21.0676Z" fill="#F40B1C"/>
<path d="M317.013 13.8184C316.829 13.8896 316.638 13.9541 316.429 14.0098C314.91 14.4292 313.467 13.6637 312.307 13.0475C311.613 12.6775 310.831 12.2618 310.415 12.4235C310.089 12.593 309.859 13.143 309.755 14.0424C309.595 15.48 309.044 16.5276 308.122 17.157C307.909 17.3041 307.67 17.4281 307.417 17.5268C306.869 17.7395 306.246 17.8336 305.563 17.8087L304.102 17.7539L304.753 16.4461C304.81 16.3355 304.861 16.2224 304.907 16.1072C305.202 15.3527 305.182 14.7006 304.847 14.1683C304.317 13.3227 303.126 12.8879 302.222 12.6737L300.099 12.1683L301.92 10.97C305.084 8.88493 308.465 6.6424 311.725 4.45591L313.387 3.34066L313.189 5.33306C313.121 6.15499 313.311 6.97761 313.731 7.68728C314.502 8.99205 315.765 9.63936 316.876 9.29717C317.12 9.22202 317.352 9.11088 317.563 8.9674L318.619 8.26335L318.988 9.47643C319.29 10.4578 319.282 11.3315 318.971 12.0721C318.641 12.8545 317.982 13.4415 317.013 13.8184Z" fill="#599306"/>
<path d="M297.847 29.5053L294.014 30.4656L297.05 27.8802C299.497 25.4224 299.402 24.0117 299.357 23.754L299.268 23.2214L299.681 22.8744C299.777 22.7944 299.87 22.7095 299.958 22.6199L300.221 22.3437L300.601 22.3284C300.861 22.3186 303.207 22.213 306.108 21.4654L308.297 20.9008L307.158 22.854C305.264 26.0999 301.398 28.1304 298.486 29.2624L297.847 29.5053Z" fill="#A02E14"/>
<path d="M289.316 33.7285C285.091 35.3712 281.792 34.8302 280.569 34.522L279.578 34.2717L279.98 33.0951C280.253 32.295 280.463 31.746 280.872 31.4232L281.006 31.3283L281.162 31.2546C281.681 31.0529 282.246 31.195 282.903 31.3617C283.744 31.573 284.692 31.8116 285.576 31.4679C286.013 31.298 286.407 31.0024 286.781 30.5648C287.095 30.1932 287.299 29.7278 287.385 29.187L287.543 28.1709L288.542 28.4178C289.177 28.5759 290.132 28.6845 291.079 28.3163C291.578 28.1224 292.026 27.8098 292.416 27.3861C293.347 26.3728 293.074 25.5844 292.62 24.6593L292.585 24.5874L292.739 23.3974L293.904 23.3579L294.189 23.5646C294.91 24.0994 295.804 24.7606 297.657 24.0401C297.913 23.9405 298.186 23.8161 298.471 23.6637L300.363 22.6533L299.829 24.7302C299.491 26.0475 298.13 28.2824 293.563 31.446C292.182 32.402 290.752 33.1702 289.316 33.7285Z" fill="#F40B1C"/>
<path d="M291.275 28.8345C289.876 29.3784 288.525 29.0247 288.01 28.8474L287.456 28.6551L287.38 28.0747C287.09 26.3948 285.775 24.5806 284.627 23.6631L283.597 22.8383L284.708 22.131C289.154 19.2962 293.583 16.4342 297.994 13.5453L300.656 11.8019L301.059 11.902C302.303 12.0495 304.456 12.4975 305.318 13.8709C305.753 14.564 305.789 15.3834 305.426 16.3112C305.066 17.2321 304.537 17.817 303.809 18.1C302.955 18.4321 302.002 18.2581 301.02 18.036C300.619 17.9426 300.011 17.8026 299.765 17.8983C299.488 18.3438 299.681 18.7262 300.212 19.5016C300.685 20.1924 301.222 20.9754 301.02 21.8861C300.861 22.6163 300.242 23.293 299.128 23.9558C298.671 24.2259 298.237 24.4432 297.834 24.6001C295.745 25.412 294.625 24.5823 293.884 24.0326C293.377 23.6555 293.21 23.5821 293.024 23.6543C292.932 23.6958 292.894 23.7334 292.89 23.7492C292.849 23.8622 293.004 24.178 293.117 24.4075C293.504 25.1975 294.091 26.3902 292.827 27.7651C292.399 28.2362 291.868 28.6021 291.275 28.8345ZM324.812 7.42293C322.824 8.19591 321.686 7.05086 320.77 6.13166C320.067 5.42442 319.693 5.13371 319.326 5.27666C319.246 5.309 319.17 5.351 319.099 5.40173C318.884 5.55528 318.884 5.99553 318.91 6.60103C318.956 7.645 319.018 9.07585 317.322 9.73524C317.233 9.76989 317.14 9.80179 317.038 9.83115C315.465 10.3146 314.003 9.24439 313.251 7.97063C312.427 6.56965 312.22 4.54966 313.623 3.19907C321.304 -1.99335 326.075 -5.34613 327.84 -6.79187L328.265 -7.14242L328.781 -6.94111C329.539 -6.64447 332.072 -5.52169 332.784 -3.52024C333.124 -2.55802 332.983 -1.54818 332.362 -0.520273C331.776 0.451246 331.111 1.07177 330.329 1.37595C329.174 1.82501 328.11 1.47485 327.173 1.16514C326.66 0.998621 326.135 0.826326 325.879 0.925957C325.743 1.00751 325.626 1.08851 326.298 2.09538C326.878 2.96298 327.597 4.04405 327.288 5.19039C327.071 5.99579 326.388 6.67015 325.199 7.25083C325.068 7.31615 324.938 7.37384 324.812 7.42293Z" fill="#77A505"/>
<path d="M279.014 35.4703C278.725 35.5783 278.414 35.6101 278.109 35.5626C276.903 35.4032 276.444 34.4145 276.075 33.6177C275.586 32.5635 275.361 32.4346 274.885 32.5627C274.504 32.7121 274.415 33.0033 274.31 33.6312C274.166 34.4995 273.97 35.6873 272.37 36.3092C272.209 36.3718 272.03 36.4302 271.83 36.4838C270.603 36.8056 269.56 36.6853 268.727 36.1257C267.566 35.343 267.166 33.9254 267.048 33.3543L266.895 32.6015L267.6 32.2986C269.823 31.3417 275.176 28.179 283.504 22.8972L283.992 22.5894L284.487 22.8813C285.446 23.4418 287.51 25.5661 287.932 27.9287C288.137 29.0884 287.885 30.1243 287.202 30.927C286.771 31.4368 286.301 31.7862 285.769 31.9931C284.73 32.3969 283.73 32.1446 282.847 31.9234C282.291 31.7834 281.718 31.6358 281.376 31.7686C281.319 31.791 281.265 31.822 281.217 31.8605C280.908 32.1062 280.706 32.7006 280.51 33.2753C280.138 34.3634 279.812 35.1598 279.013 35.4707L279.014 35.4703Z" fill="#599306"/>
<path d="M263.187 20.0938C266.475 9.92195 274.467 -13.899 277.122 -16.0188C277.286 -16.148 277.488 -16.258 277.742 -16.3566C282.686 -18.279 315.581 -17.5876 322.426 -15.8899L323.879 -15.4218L322.756 -14.2116C320.109 -12.2801 306.217 -2.1891 292.704 6.84553C279.307 15.8026 265.75 24.0678 263.169 25.6339L261.592 25.8712C261.592 25.8712 262.398 22.5365 263.187 20.0938Z" fill="#FCC683"/>
<path d="M323.873 -15.4254L322.752 -14.2055C320.109 -12.2802 306.219 -2.19135 292.702 6.84053C279.3 15.7995 265.758 24.0715 263.173 25.6324L261.6 25.8737C261.6 25.8737 261.965 24.3209 262.451 22.5646C268.15 19.009 275.947 14.0678 283.683 8.89411C296.711 0.180601 310.098 -9.51351 313.407 -11.9257C313.63 -12.0839 313.819 -12.2571 313.999 -12.4552L314.854 -13.3718L313.585 -13.7762C313.457 -13.812 313.359 -13.845 313.231 -13.8808C307.782 -15.1395 287.952 -15.8221 276.483 -15.2671C276.718 -15.6151 276.932 -15.8695 277.119 -16.0132C277.28 -16.1473 277.494 -16.2587 277.741 -16.355C282.68 -18.2754 315.58 -17.5872 322.425 -15.8883L323.873 -15.4254Z" fill="#F7BE7F"/>
<path d="M267.833 32.9447C267.607 33.0328 267.394 33.0912 267.187 33.1232L267.001 33.1387C265.823 32.9467 264.541 31.8252 263.373 30.0433C262.61 28.8794 262.042 27.6568 261.777 26.6001L261.593 25.8707L262.255 25.485C262.367 25.4185 277.303 16.4704 292.396 6.38135C304.019 -1.38854 315.706 -9.786 320.583 -13.3222C321.958 -14.3187 323.879 -15.4218 323.879 -15.4218L324.22 -15.0698C327.31 -12.2672 330.284 -9.11276 328.879 -6.99342C328.326 -6.1602 327.389 -5.53639 326.564 -4.98746C326.318 -4.82484 326.086 -4.67047 325.883 -4.52174C323.81 -3.00326 321.714 -1.5585 319.744 -0.208221C313.859 3.83127 307.988 7.69727 302.521 11.2751C298.024 14.2204 293.325 17.2589 288.552 20.3073C284.718 22.7632 280.864 25.1888 276.992 27.5838L276.463 27.9104C274.117 29.3587 271.714 30.8429 269.274 32.178C269.161 32.2391 269.042 32.3109 268.92 32.3825C268.597 32.5738 268.232 32.7897 267.833 32.9447Z" fill="#FFA963"/>
<path d="M328.875 -6.99616C328.332 -6.15791 327.391 -5.53562 326.564 -4.98621C326.316 -4.81843 326.088 -4.67266 325.889 -4.52413C323.815 -3.00517 321.712 -1.56048 319.743 -0.210678C313.861 3.82909 307.983 7.69625 302.52 11.2739C298.023 14.2197 293.319 17.2596 288.549 20.3113C284.008 23.2171 280.333 25.5296 276.998 27.5814L276.467 27.9019C274.113 29.3589 271.713 30.8476 269.281 32.1781C269.162 32.2386 269.048 32.3115 268.916 32.3768C268.594 32.5735 268.234 32.7846 267.838 32.9386C267.603 33.0301 267.4 33.0947 267.183 33.1222L267.002 33.1352C266.443 33.0534 265.857 32.7542 265.282 32.2652L265.54 32.1222C265.666 32.0445 265.78 31.9716 265.899 31.9111C268.332 30.5806 270.744 29.0871 273.091 27.6472L273.617 27.3144C276.951 25.2626 280.627 22.9501 285.168 20.0443C289.95 16.9878 294.641 13.9527 299.139 11.0069C304.607 7.44162 310.48 3.56208 316.366 -0.465309C318.335 -1.81511 320.434 -3.27218 322.508 -4.79114C322.706 -4.93967 322.947 -5.09025 323.183 -5.25322C324.01 -5.80263 324.95 -6.42492 325.498 -7.25079C326.74 -9.1157 324.6 -11.7606 321.983 -14.277C322.978 -14.9062 323.873 -15.4253 323.873 -15.4253L324.223 -15.0766C327.308 -12.2721 330.289 -9.11344 328.875 -6.99616Z" fill="#F49853"/>
</g>
<g clip-path="url(#clip2_14_360)">
<path d="M356.137 126.702C353.653 125.912 351.303 124.763 349.163 123.291C345.869 121.102 343.258 118.051 341.619 114.478C340.469 111.881 340.037 109.027 340.365 106.205C340.693 103.384 341.771 100.694 343.488 98.4104C344.476 96.8753 345.822 95.595 347.412 94.6771C349.002 93.7591 350.79 93.2302 352.625 93.1348C357.269 92.9262 361.79 95.5534 365.099 98.2198L361.281 106.476C359.596 104.657 357.516 103.237 355.196 102.322C354.62 102.125 354.008 102.05 353.4 102.101C352.791 102.153 352.2 102.33 351.664 102.62C351.127 102.911 350.658 103.309 350.287 103.789C349.915 104.27 349.649 104.821 349.506 105.408C347.626 111.159 352.608 115.863 357.565 117.917L356.137 126.702Z" fill="#C03A2B"/>
<path d="M425.493 120.917C421.881 124.8 416.239 127.753 408.539 128.72C402.942 129.417 399.541 128.749 397.383 127.205C391.469 123.003 394.923 112.405 388.35 106.321C385.866 104.135 382.863 102.601 379.617 101.86C376.371 101.118 372.985 101.193 369.768 102.077C367.605 98.6933 366.74 95.8565 367.48 93.9723C367.477 93.9552 367.477 93.9552 367.491 93.9349L367.488 93.9178C367.585 93.697 367.703 93.4865 367.842 93.2883C371.48 88.1441 389.946 94.6558 409.115 107.821C414.903 111.77 420.378 116.148 425.493 120.917Z" fill="#BDC3C7"/>
<path d="M436.688 141.557C430.863 148.614 401.414 181.281 371.634 160.805C358.249 151.617 355.114 138.761 356.137 126.702C356.391 123.744 356.869 120.807 357.565 117.917C358.514 114.018 359.757 110.194 361.281 106.476C362.575 103.272 363.936 100.445 365.099 98.2197C366.063 96.3842 366.882 94.946 367.48 93.9722C366.74 95.8564 367.605 98.6933 369.768 102.077C374.105 108.897 383.673 118.004 395.937 126.436C396.387 126.745 396.833 127.037 397.283 127.346C415.174 139.377 432.168 145.478 436.688 141.557Z" fill="#E64C3C"/>
<path d="M425.493 120.917C420.378 116.148 414.903 111.77 409.115 107.821C389.946 94.6558 371.48 88.1441 367.842 93.2883C367.703 93.4857 367.584 93.6967 367.488 93.9178L367.491 93.9349C367.477 93.9552 367.477 93.9552 367.48 93.9723C366.74 95.8565 367.605 98.6933 369.768 102.077C374.105 108.897 383.673 118.004 395.937 126.436C396.387 126.745 396.833 127.037 397.283 127.346C415.174 139.377 432.168 145.478 436.688 141.557L425.493 120.917Z" fill="#BDC3C7"/>
<path d="M417.497 83.8097C419.175 81.437 417.3 77.2889 413.309 74.5448C409.318 71.8007 404.722 71.4997 403.044 73.8725C401.367 76.2452 403.242 80.3932 407.233 83.1373C411.224 85.8814 415.819 86.1825 417.497 83.8097Z" fill="#A56A43"/>
<path d="M392.451 149.624C388.458 155.291 382.026 157.837 377.276 155.94C379.769 152.222 377.012 150.235 379.664 146.506C382.354 142.681 385.236 144.663 387.945 140.852C390.577 137.108 387.823 135.14 390.334 131.418C390.879 131.641 391.398 131.923 391.882 132.256C396.647 135.548 396.922 143.322 392.451 149.624Z" fill="#F29C1F"/>
<path d="M390.334 131.417C387.823 135.139 390.577 137.108 387.945 140.852C385.236 144.663 382.354 142.681 379.664 146.506C377.012 150.235 379.769 152.221 377.276 155.94C376.731 155.716 376.212 155.435 375.728 155.101C370.945 151.813 370.688 144.036 375.159 137.734C379.152 132.067 385.584 129.521 390.334 131.417Z" fill="#E57E25"/>
<path d="M397.383 127.205L397.283 127.347C396.833 127.037 396.387 126.745 395.937 126.436C383.673 118.004 374.105 108.897 369.768 102.077C372.985 101.193 376.371 101.118 379.617 101.86C382.863 102.601 385.866 104.135 388.35 106.321C394.923 112.405 391.469 123.003 397.383 127.205Z" fill="#A56A43"/>
<path d="M425.493 120.917C420.378 116.148 414.903 111.77 409.115 107.821C389.946 94.6558 371.48 88.1441 367.842 93.2883C367.703 93.4857 367.584 93.6967 367.488 93.9178L367.491 93.9349C367.477 93.9552 367.477 93.9552 367.48 93.9723C366.74 95.8565 367.605 98.6933 369.768 102.077C374.105 108.897 383.673 118.004 395.937 126.436C396.387 126.745 396.833 127.037 397.283 127.346C415.174 139.377 432.168 145.478 436.688 141.557C438.248 139.96 434.864 136.06 434.864 136.06L425.493 120.917ZM399.279 124.46L397.956 123.58C396.505 122.583 395.106 121.576 393.704 120.551C384.919 114.03 377.54 107.045 373.587 101.467C373.296 101.041 373.007 100.632 372.754 100.217C371.7 98.8193 371.009 97.1868 370.74 95.4616L370.947 95.2124C371.092 95.1617 371.241 95.1244 371.393 95.0975C376.398 94.2048 390.608 99.3695 407.099 110.694C412.58 114.441 417.777 118.577 422.649 123.07L422.805 123.343L431.409 139.207C426.382 138.776 417.22 135.366 406.37 128.929C403.96 127.512 401.595 126.021 399.279 124.46Z" fill="#ECF0F1"/>
<path d="M444.466 110.861C445.506 118.088 444.747 125.464 442.255 132.352C441.623 133.988 440.59 135.444 439.249 136.591C437.909 137.738 436.302 138.54 434.574 138.924L434.513 138.935C433.395 139.201 432.241 139.282 431.098 139.174C428.862 138.875 426.664 138.348 424.541 137.6C423.146 137.123 421.647 136.558 420.039 135.889C415.321 133.891 410.753 131.565 406.37 128.929C407.06 128.877 407.785 128.818 408.539 128.719C416.239 127.753 421.881 124.8 425.493 120.917C428.48 117.867 430.188 113.816 430.272 109.582C430.356 105.348 428.809 101.248 425.945 98.1116C416.559 87.4141 440.947 82.8876 444.466 110.861Z" fill="#A56A43"/>
<path d="M434.601 127.948C432.237 132.037 428.748 135.385 424.541 137.6C423.146 137.123 421.647 136.559 420.039 135.89C424.867 134.052 428.922 130.644 431.533 126.229C431.766 125.826 432.15 125.53 432.602 125.407C433.054 125.283 433.537 125.341 433.944 125.569C434.351 125.797 434.649 126.176 434.772 126.622C434.895 127.068 434.834 127.545 434.601 127.948Z" fill="#805333"/>
</g>
<g clip-path="url(#clip3_14_360)">
<path d="M74.8856 68.7412C77.119 70.7842 79.676 78.6339 77.3235 81.2057C74.9711 83.7775 60.6277 87.2729 60.6277 87.2729C60.6277 87.2729 56.1137 100.588 40.0241 101.802C40.0241 101.802 39.5747 110.176 31.5269 118.974C23.479 127.772 15.1789 128.964 15.1789 128.964C15.4008 145.12 2.53879 150.778 2.53879 150.778C2.53879 150.778 0.269602 165.421 -2.06125 167.992C-4.4137 170.564 -12.4587 168.737 -14.6931 166.672C-16.9265 164.629 -25.1096 150.473 -23.2433 138.444L-28.0393 129.396C-28.0393 129.396 -29.5552 117.713 -22.4479 104.802L-25.0363 94.7892C-25.0363 94.7892 -22.8737 85.0412 -15.0115 76.446C-7.14942 67.8508 2.36763 64.8301 2.36763 64.8301L12.5705 66.518C24.7988 58.291 36.5705 58.7621 36.5705 58.7621L46.0095 62.7347C57.8246 59.8063 72.6522 66.6983 74.8856 68.7412Z" fill="#E36415"/>
<path d="M70.9392 75.3658C68.5868 77.9376 55.9404 80.6649 55.9404 80.6649C55.9404 80.6649 50.8745 94.2211 34.7642 95.458C34.7642 95.458 33.1913 104.357 25.1435 113.156C17.0956 121.954 8.77361 124.597 8.77361 124.597C8.9955 140.752 -4.16933 146.9 -4.16933 146.9C-4.16933 146.9 -6.09315 159.581 -8.4456 162.152C-10.0345 163.889 -14.2672 163.602 -17.5146 162.6C-16.3405 164.668 -15.3022 166.115 -14.6931 166.672C-12.4597 168.715 -4.41369 170.564 -2.06124 167.992C0.291203 165.42 2.49752 150.823 2.49752 150.823C2.49752 150.823 15.3586 145.143 15.1377 129.009C15.1377 129.009 23.4378 127.817 31.4856 119.019C39.5334 110.221 39.9828 101.848 39.9828 101.848C56.094 100.632 60.5865 87.318 60.5865 87.318C60.5865 87.318 74.9514 83.8216 77.2823 81.2508C79.6347 78.679 77.0994 70.8283 74.8444 68.7863C74.2353 68.2291 72.7008 67.302 70.5371 66.338C71.8654 69.4384 72.5281 73.6287 70.9392 75.3658Z" fill="#B24E10"/>
<path d="M2.49753 150.823C2.49753 150.823 -12.3696 148.391 -23.2423 138.466L-28.0383 129.418C-17.9767 139.595 2.49753 150.823 2.49753 150.823ZM15.1367 128.988C15.1367 128.988 -6.77978 122.303 -22.4479 104.802L-25.0363 94.7891C-13.4599 110.309 15.1367 128.988 15.1367 128.988ZM60.6277 87.2729C60.6277 87.2729 56.8832 72.6809 46.0311 62.7336L36.5921 58.7611C47.6236 67.878 60.6277 87.2729 60.6277 87.2729ZM40.0025 101.803C40.0025 101.803 31.3959 80.568 12.5705 66.518L2.36764 64.83C18.8553 74.9807 40.0025 101.803 40.0025 101.803Z" fill="#FFCB5D"/>
<path d="M-17.1516 95.9311L-15.8902 97.0435C-14.0197 98.7131 -11.1472 98.5851 -9.45513 96.7352L4.82945 81.232C6.43902 79.4724 6.44835 76.7669 4.83412 75.021L3.12868 73.171C1.65077 71.5705 -0.723563 71.2218 -2.60053 72.3225C-6.49987 74.6602 -12.9983 79.8621 -18.2157 90.5035C-19.1078 92.3394 -18.6838 94.5711 -17.1516 95.9311Z" fill="#EF8039"/>
</g>
</g>
<defs>
<linearGradient id="paint0_linear_14_360" x1="366.5" y1="19" x2="40.5" y2="235" gradientUnits="userSpaceOnUse">
<stop stop-color="#09C272"/>
<stop offset="0.576923" stop-color="#58D22D"/>
<stop offset="1" stop-color="#09C272"/>
</linearGradient>
<clipPath id="clip0_14_360">
<rect width="420" height="250" rx="20" fill="white"/>
</clipPath>
<clipPath id="clip1_14_360">
<rect width="85" height="85" fill="white" transform="translate(243.487 -13.7092) rotate(-21.2473)"/>
</clipPath>
<clipPath id="clip2_14_360">
<rect width="102.396" height="101.058" fill="white" transform="translate(335 79.9778) rotate(-10.1119)"/>
</clipPath>
<clipPath id="clip3_14_360">
<rect width="110.689" height="110.689" fill="white" transform="translate(-27.299 171.281) rotate(-92.5504)"/>
</clipPath>
</defs>
</svg>
