<svg width="1114" height="231" viewBox="0 0 1114 231" fill="none" xmlns="http://www.w3.org/2000/svg">
<path d="M138.198 194.659C138.596 195.656 138.796 197.151 138.796 199.144C138.796 200.938 138.796 202.433 138.796 203.629C138.796 205.224 138.497 206.719 137.899 208.114C137.301 209.509 136.503 210.805 135.507 212.001C133.713 214.393 131.121 216.187 127.733 217.383C122.949 218.978 118.464 219.775 114.278 219.775C112.085 219.974 109.793 220.074 107.401 220.074C105.009 220.074 102.617 220.273 100.225 220.672H99.0288C83.6801 220.871 67.8331 220.871 51.4878 220.672C47.5011 220.473 43.0161 220.473 38.0328 220.672C33.0495 221.071 28.1658 220.971 23.3818 220.373C18.5978 219.974 14.2125 218.878 10.2258 217.084C6.43847 215.091 3.74747 212.001 2.1528 207.815C1.75413 206.818 1.45513 205.921 1.2558 205.124C1.05647 204.127 0.9568 203.131 0.9568 202.134C0.159466 195.357 -0.139534 188.679 0.0598002 182.101C0.259133 175.523 0.3588 169.045 0.3588 162.666L0.9568 119.311V79.245C0.9568 72.069 0.9568 65.6903 0.9568 60.109C1.15613 54.5277 1.35547 48.3483 1.5548 41.571V40.076C1.75413 38.0827 1.8538 36.0893 1.8538 34.096C2.05313 32.1027 2.1528 30.1093 2.1528 28.116C2.55147 23.5313 3.6478 19.6443 5.4418 16.455C6.6378 13.465 8.7308 11.073 11.7208 9.27899C14.3121 7.48499 17.4018 6.58799 20.9898 6.58799C22.3851 6.58799 23.6808 6.68765 24.8768 6.88699C26.2721 6.88699 27.5678 6.98666 28.7638 7.186C29.9598 7.38533 31.0561 7.78399 32.0528 8.38198C33.2488 8.97999 34.4448 9.77732 35.6408 10.774C36.8368 12.1693 37.9331 13.8637 38.9298 15.857C39.7271 18.0497 40.2255 20.2423 40.4248 22.435C40.6241 23.8303 40.8235 25.126 41.0228 26.322C41.2221 27.518 41.3218 28.714 41.3218 29.91C40.9231 31.106 40.7238 32.302 40.7238 33.498C40.7238 34.694 40.7238 35.7903 40.7238 36.787V42.169L39.5278 182.998L98.7298 183.596H112.783C113.979 183.596 115.274 183.696 116.67 183.895C118.065 183.895 119.46 183.995 120.856 184.194C122.45 184.393 123.846 184.593 125.042 184.792C126.238 184.991 127.434 185.29 128.63 185.689C130.822 186.287 132.616 187.284 134.012 188.679C136.204 190.672 137.6 192.666 138.198 194.659Z" fill="white"/>
<path d="M181.915 91.504C187.895 88.514 194.174 86.421 200.752 85.225C207.33 83.8297 213.808 83.5307 220.187 84.328C226.765 84.926 233.044 86.6203 239.024 89.411C245.004 92.0023 250.585 95.7897 255.768 100.773C260.951 105.956 264.937 111.637 267.728 117.816C270.519 123.995 272.512 130.872 273.708 138.447C274.505 143.63 275.801 148.414 277.595 152.799C279.389 157.184 281.283 161.57 283.276 165.955C285.469 170.34 287.462 174.726 289.256 179.111C291.249 183.496 292.844 188.081 294.04 192.865C295.037 197.45 294.638 201.935 292.844 206.32C291.249 210.506 287.861 213.097 282.678 214.094C279.688 214.692 276.798 214.493 274.007 213.496C271.416 212.3 269.024 210.705 266.831 208.712C264.638 206.519 262.645 204.227 260.851 201.835C259.256 199.244 257.761 196.852 256.366 194.659C251.781 200.639 246.798 205.323 241.416 208.712C236.034 211.901 229.556 213.994 221.981 214.991C215.602 215.788 209.523 215.988 203.742 215.589C197.961 215.19 191.782 214.094 185.204 212.3C176.633 210.107 169.556 206.32 163.975 200.938C158.593 195.357 154.407 188.978 151.417 181.802C148.626 174.427 147.131 166.553 146.932 158.181C146.733 149.809 147.729 141.537 149.922 133.364C152.713 122.6 156.899 113.829 162.48 107.052C168.061 100.275 174.54 95.092 181.915 91.504ZM189.39 126.487C186.599 129.278 184.407 132.567 182.812 136.354C181.217 140.141 180.221 144.128 179.822 148.314C179.623 152.5 180.021 156.686 181.018 160.872C182.015 165.058 183.609 168.746 185.802 171.935C187.795 174.726 191.184 177.118 195.968 179.111C200.752 180.905 205.735 182.001 210.918 182.4C216.898 182.799 222.081 181.204 226.466 177.616C231.051 174.028 234.439 169.543 236.632 164.161C239.024 158.58 240.12 152.699 239.921 146.52C239.722 140.141 238.027 134.361 234.838 129.178C232.446 125.391 229.257 122.6 225.27 120.806C221.483 119.012 217.396 118.115 213.011 118.115C208.626 117.916 204.24 118.613 199.855 120.208C195.669 121.603 192.181 123.696 189.39 126.487Z" fill="white"/>
<path d="M319.214 110.64C319.214 106.055 319.115 101.172 318.915 95.989C318.915 90.8063 319.812 86.122 321.606 81.936C323.201 78.1487 325.792 75.4577 329.38 73.863C333.168 72.069 336.855 71.6703 340.443 72.667C344.031 73.265 346.822 74.3613 348.815 75.956C350.809 77.5507 352.204 79.4443 353.001 81.637C353.998 83.6303 354.596 86.0223 354.795 88.813C354.995 91.4043 355.194 93.9957 355.393 96.587C357.387 92.999 359.878 90.1087 362.868 87.916C365.858 85.7233 368.948 83.9293 372.137 82.534C375.327 81.1387 378.317 80.142 381.107 79.544C384.097 78.946 386.39 78.647 387.984 78.647C395.559 78.647 403.034 80.3413 410.409 83.73C417.984 86.9193 424.263 91.504 429.246 97.484C432.037 101.072 434.13 104.859 435.525 108.846C437.12 112.633 438.216 116.62 438.814 120.806C439.612 124.992 440.11 129.278 440.309 133.663C440.509 137.849 440.708 142.135 440.907 146.52C441.904 159.277 441.904 171.935 440.907 184.493C440.708 187.084 440.608 190.074 440.608 193.463C440.608 196.852 440.309 200.24 439.711 203.629C439.313 206.818 438.416 209.709 437.02 212.3C435.824 214.692 433.731 216.187 430.741 216.785C426.555 217.782 423.067 217.981 420.276 217.383C417.685 216.984 415.592 216.087 413.997 214.692C412.403 213.297 411.207 211.503 410.409 209.31C409.612 207.117 408.914 204.626 408.316 201.835C407.918 199.642 407.519 197.151 407.12 194.36C406.921 191.37 406.722 188.38 406.522 185.39C406.522 182.4 406.423 179.51 406.223 176.719C406.223 173.729 406.223 171.038 406.223 168.646C406.223 164.859 406.124 160.673 405.924 156.088C405.725 151.503 405.725 147.218 405.924 143.231C405.924 133.862 403.433 126.786 398.449 122.002C393.665 117.019 387.087 114.926 378.715 115.723C372.337 116.52 366.755 119.112 361.971 123.497C357.187 127.683 354.895 133.165 355.094 139.942C355.094 142.533 355.094 144.925 355.094 147.118C355.094 149.311 354.995 151.503 354.795 153.696C354.795 155.889 354.795 158.281 354.795 160.872C354.795 163.463 354.795 166.354 354.795 169.543C354.795 176.121 354.795 183.098 354.795 190.473C354.795 197.649 353.898 203.529 352.104 208.114C350.51 212.898 347.819 216.187 344.031 217.981C340.244 219.775 335.759 219.277 330.576 216.486C328.384 215.29 326.59 213.695 325.194 211.702C323.998 209.509 323.002 207.217 322.204 204.825C321.606 202.433 321.208 200.041 321.008 197.649C320.809 195.058 320.61 192.666 320.41 190.473C319.812 183.895 319.414 177.815 319.214 172.234C319.214 166.453 319.214 160.274 319.214 153.696V110.64Z" fill="white"/>
<path d="M577.015 102.268C578.61 105.059 579.407 108.049 579.407 111.238C579.607 114.427 578.909 117.417 577.314 120.208C575.52 123.796 572.929 126.288 569.54 127.683C566.351 128.879 562.763 128.979 558.776 127.982C556.982 127.583 555.388 126.886 553.992 125.889C552.597 124.892 551.102 123.896 549.507 122.899C548.112 121.703 546.418 120.607 544.424 119.61C542.63 118.613 540.238 117.916 537.248 117.517C534.258 117.118 530.969 117.118 527.381 117.517C523.993 117.916 520.903 118.713 518.112 119.909C513.727 122.102 510.239 125.49 507.647 130.075C505.056 134.46 503.362 139.244 502.564 144.427C501.767 149.41 501.867 154.493 502.863 159.676C504.059 164.859 506.252 169.244 509.441 172.832C511.833 175.623 514.923 177.915 518.71 179.709C522.697 181.503 526.484 182.599 530.072 182.998C533.461 183.397 536.85 183.397 540.238 182.998C543.627 182.4 546.916 181.603 550.105 180.606C552.497 179.609 555.188 178.314 558.178 176.719C561.168 174.925 564.059 173.829 566.849 173.43C570.437 173.43 573.228 174.427 575.221 176.42C577.215 178.214 578.61 180.506 579.407 183.297C580.205 185.888 580.304 188.679 579.706 191.669C579.308 194.659 578.211 197.25 576.417 199.443C574.025 202.433 570.637 205.323 566.251 208.114C561.866 210.705 557.68 212.599 553.693 213.795C548.909 215.39 543.527 216.287 537.547 216.486C531.767 216.685 526.285 216.486 521.102 215.888C518.71 215.489 516.219 214.991 513.627 214.393C511.036 213.795 508.544 213.097 506.152 212.3C497.382 209.111 490.006 204.626 484.026 198.845C478.246 192.865 473.761 186.187 470.571 178.812C467.581 171.437 465.887 163.563 465.488 155.191C465.09 146.819 466.086 138.547 468.478 130.374C470.671 122.6 473.362 116.022 476.551 110.64C479.94 105.258 483.827 100.873 488.212 97.484C492.797 93.896 497.88 91.1053 503.461 89.112C509.043 86.9193 515.222 85.0257 521.999 83.431C528.976 82.0357 536.351 82.0357 544.125 83.431C551.899 84.8263 558.876 87.4177 565.055 91.205C569.839 93.7963 573.826 97.484 577.015 102.268Z" fill="white"/>
<path d="M720.51 158.48C720.709 162.467 720.809 166.653 720.809 171.038C720.809 175.224 720.709 179.111 720.51 182.699C720.31 188.081 720.011 193.064 719.613 197.649C719.214 202.034 718.417 205.822 717.221 209.011C716.025 212.001 714.131 214.293 711.54 215.888C709.148 217.283 705.759 217.682 701.374 217.084C696.789 216.486 693.5 214.293 691.507 210.506C689.513 206.719 688.118 202.433 687.321 197.649C686.723 192.666 686.523 187.682 686.723 182.699C686.922 177.716 686.922 173.829 686.723 171.038C686.523 166.653 686.324 161.669 686.125 156.088C686.125 150.307 685.527 144.925 684.331 139.942C683.334 134.759 681.54 130.374 678.949 126.786C676.357 123.198 672.47 121.304 667.288 121.105C660.71 120.706 655.627 121.205 652.039 122.6C648.65 123.995 646.158 126.088 644.564 128.879C642.969 131.47 641.972 134.66 641.574 138.447C641.374 142.234 640.976 146.321 640.378 150.706L640.079 162.367V184.194C640.079 187.782 639.979 191.569 639.78 195.556C639.78 199.343 639.182 202.832 637.986 206.021C636.79 209.21 634.896 211.901 632.305 214.094C629.913 216.287 626.325 217.383 621.541 217.383C615.561 217.383 611.076 215.489 608.086 211.702C605.295 207.715 603.9 202.832 603.9 197.051V25.126C603.9 23.93 603.9 22.8337 603.9 21.837C604.099 20.641 604.298 19.445 604.498 18.249C604.896 17.053 605.195 15.9567 605.395 14.96C605.594 13.764 605.893 12.6677 606.292 11.671C606.89 9.67766 607.886 8.18266 609.282 7.186C610.278 6.18933 611.275 5.392 612.272 4.79399C613.268 4.19599 614.365 3.79732 615.561 3.59799C616.557 3.39866 617.654 3.299 618.85 3.299C620.046 3.09967 621.242 3 622.438 3C625.428 3 628.318 3.897 631.109 5.691C632.305 6.48832 633.401 7.38532 634.398 8.38198C635.394 9.17932 636.192 10.3753 636.79 11.97C638.384 15.7573 639.182 19.3453 639.182 22.734C639.381 23.7307 639.481 25.2257 639.481 27.219C639.68 29.013 639.78 30.9067 639.78 32.9C639.78 34.8933 639.78 36.8867 639.78 38.88C639.979 40.674 640.079 42.0693 640.079 43.066V44.561C640.278 50.9397 640.378 57.418 640.378 63.996C640.378 70.574 640.378 77.2517 640.378 84.029V89.112C648.75 86.3213 657.52 85.0257 666.69 85.225C675.859 85.225 684.032 87.019 691.208 90.607C698.583 94.3943 704.164 98.68 707.952 103.464C711.938 108.248 714.829 113.53 716.623 119.311C718.417 125.092 719.413 131.271 719.613 137.849C720.011 144.427 720.31 151.304 720.51 158.48Z" fill="white"/>
<path d="M812.097 110.64C812.097 106.055 811.997 101.172 811.798 95.989C811.798 90.8063 812.695 86.122 814.489 81.936C816.084 78.1487 818.675 75.4577 822.263 73.863C826.05 72.069 829.738 71.6703 833.326 72.667C836.914 73.265 839.705 74.3613 841.698 75.956C843.691 77.5507 845.087 79.4443 845.884 81.637C846.881 83.6303 847.479 86.0223 847.678 88.813C847.877 91.4043 848.077 93.9957 848.276 96.587C850.269 92.999 852.761 90.1087 855.751 87.916C858.741 85.7233 861.831 83.9293 865.02 82.534C868.209 81.1387 871.199 80.142 873.99 79.544C876.98 78.946 879.272 78.647 880.867 78.647C888.442 78.647 895.917 80.3413 903.292 83.73C910.867 86.9193 917.146 91.504 922.129 97.484C924.92 101.072 927.013 104.859 928.408 108.846C930.003 112.633 931.099 116.62 931.697 120.806C932.494 124.992 932.993 129.278 933.192 133.663C933.391 137.849 933.591 142.135 933.79 146.52C934.787 159.277 934.787 171.935 933.79 184.493C933.591 187.084 933.491 190.074 933.491 193.463C933.491 196.852 933.192 200.24 932.594 203.629C932.195 206.818 931.298 209.709 929.903 212.3C928.707 214.692 926.614 216.187 923.624 216.785C919.438 217.782 915.95 217.981 913.159 217.383C910.568 216.984 908.475 216.087 906.88 214.692C905.285 213.297 904.089 211.503 903.292 209.31C902.495 207.117 901.797 204.626 901.199 201.835C900.8 199.642 900.402 197.151 900.003 194.36C899.804 191.37 899.604 188.38 899.405 185.39C899.405 182.4 899.305 179.51 899.106 176.719C899.106 173.729 899.106 171.038 899.106 168.646C899.106 164.859 899.006 160.673 898.807 156.088C898.608 151.503 898.608 147.218 898.807 143.231C898.807 133.862 896.315 126.786 891.332 122.002C886.548 117.019 879.97 114.926 871.598 115.723C865.219 116.52 859.638 119.112 854.854 123.497C850.07 127.683 847.778 133.165 847.977 139.942C847.977 142.533 847.977 144.925 847.977 147.118C847.977 149.311 847.877 151.503 847.678 153.696C847.678 155.889 847.678 158.281 847.678 160.872C847.678 163.463 847.678 166.354 847.678 169.543C847.678 176.121 847.678 183.098 847.678 190.473C847.678 197.649 846.781 203.529 844.987 208.114C843.392 212.898 840.701 216.187 836.914 217.981C833.127 219.775 828.642 219.277 823.459 216.486C821.266 215.29 819.472 213.695 818.077 211.702C816.881 209.509 815.884 207.217 815.087 204.825C814.489 202.433 814.09 200.041 813.891 197.649C813.692 195.058 813.492 192.666 813.293 190.473C812.695 183.895 812.296 177.815 812.097 172.234C812.097 166.453 812.097 160.274 812.097 153.696V110.64Z" fill="white"/>
<path d="M997.241 82.235C1003.82 79.0457 1010.7 76.7533 1017.87 75.358C1025.05 73.9627 1032.12 73.6637 1039.1 74.461C1046.28 75.2583 1053.15 77.152 1059.73 80.142C1066.51 83.132 1072.69 87.318 1078.27 92.7C1082.85 97.2847 1086.84 102.866 1090.23 109.444C1093.62 115.823 1096.11 122.102 1097.71 128.281C1101.09 139.244 1101.59 150.307 1099.2 161.47C1096.81 172.633 1092.72 182.998 1086.94 192.566C1084.15 196.951 1080.66 200.938 1076.48 204.526C1072.49 207.915 1068.2 210.705 1063.62 212.898C1057.64 215.689 1051.16 217.582 1044.18 218.579C1037.21 219.775 1030.43 220.074 1023.85 219.476C1011.89 218.878 1001.33 215.888 992.158 210.506C983.188 205.124 975.913 198.247 970.331 189.875C964.949 181.503 961.361 172.035 959.567 161.47C957.972 150.706 958.67 139.743 961.66 128.58C964.849 116.62 969.434 106.952 975.414 99.577C981.593 92.0023 988.869 86.2217 997.241 82.235ZM1006.21 122.301C1003.22 125.092 1000.93 128.58 999.334 132.766C997.74 136.952 996.743 141.337 996.344 145.922C995.945 150.307 996.245 154.792 997.241 159.377C998.437 163.762 1000.23 167.749 1002.62 171.337C1004.62 174.327 1008.2 176.819 1013.39 178.812C1018.57 180.805 1023.95 182.001 1029.53 182.4C1035.91 182.799 1041.49 181.104 1046.28 177.317C1051.06 173.33 1054.65 168.447 1057.04 162.666C1059.63 156.885 1060.83 150.606 1060.63 143.829C1060.43 137.052 1058.64 130.872 1055.25 125.291C1052.86 121.304 1049.47 118.414 1045.08 116.62C1040.9 114.627 1036.41 113.63 1031.63 113.63C1027.04 113.431 1022.46 114.128 1017.87 115.723C1013.29 117.118 1009.4 119.311 1006.21 122.301Z" fill="white"/>
<path fill-rule="evenodd" clip-rule="evenodd" d="M782.314 122.899V104.062C782.314 101.67 782.214 99.0787 782.015 96.288C782.015 93.298 781.816 90.5073 781.417 87.916C781.218 85.1253 780.919 82.6337 780.52 80.441C780.121 78.2483 779.523 76.554 778.726 75.358C777.53 73.564 775.536 72.1687 772.746 71.172C770.155 70.1753 767.364 69.677 764.374 69.677C761.583 69.677 758.892 70.1753 756.301 71.172C753.71 71.9693 751.716 73.1653 750.321 74.76C748.527 77.3513 747.231 80.6403 746.434 84.627C745.637 88.4143 745.138 92.401 744.939 96.587C744.74 100.773 744.64 104.859 744.64 108.846C744.839 112.833 744.939 116.221 744.939 119.012V135.158V153.098C745.138 159.277 745.238 165.357 745.238 171.337C745.437 177.317 745.537 182.599 745.537 187.184C745.936 196.154 747.431 203.131 750.022 208.114C752.812 213.097 757.298 215.788 763.477 216.187C767.663 216.386 770.952 215.589 773.344 213.795C775.935 211.802 777.829 209.31 779.025 206.32C780.221 203.33 781.018 200.141 781.417 196.752C781.816 193.164 782.115 189.875 782.314 186.885C782.513 180.706 782.613 174.028 782.613 166.852V144.726C782.613 137.151 782.513 129.876 782.314 122.899Z" fill="white"/>
<path d="M735.6 10.5981C734.685 25.1931 738.979 54.3831 763.478 54.3831C787.976 54.3831 794.1 24.9938 794.1 10.2991" stroke="white" stroke-width="12" stroke-linecap="round"/>
<path d="M764.6 6.88306V35.8831" stroke="white" stroke-width="12" stroke-linecap="round"/>
<path d="M1069.29 228.027C1080.94 224.966 1104.97 212.623 1107.91 187.74" stroke="white" stroke-width="5" stroke-linecap="round"/>
<path d="M1005.27 62.6228C993.285 63.8175 967.618 72.2355 960.809 96.3493" stroke="white" stroke-width="5" stroke-linecap="round"/>
<path d="M209.6 132.383C214.36 132.383 218.926 133.735 222.25 136.166C225.529 138.564 227.6 141.996 227.6 146.383C227.6 150.884 225.172 156.575 221.384 161.197C217.568 165.853 212.829 168.883 208.6 168.883C204.32 168.883 200.482 166.418 197.631 162.531C194.779 158.644 193.1 153.556 193.1 148.883C193.1 139.77 200.487 132.383 209.6 132.383Z" stroke="white" stroke-width="4"/>
</svg>
