<svg width="153" height="171" viewBox="0 0 153 171" fill="none" xmlns="http://www.w3.org/2000/svg">
<path d="M38.933 22.1124C45.511 18.9231 52.388 16.6308 59.564 15.2354C66.74 13.8401 73.8164 13.5411 80.7931 14.3384C87.9691 15.1358 94.8461 17.0294 101.424 20.0194C108.201 23.0094 114.381 27.1954 119.962 32.5774C124.547 37.1621 128.533 42.7434 131.922 49.3214C135.311 55.7001 137.802 61.9791 139.397 68.1584C142.786 79.1218 143.284 90.1848 140.892 101.347C138.5 112.51 134.414 122.875 128.633 132.443C125.842 136.829 122.354 140.815 118.168 144.403C114.181 147.792 109.896 150.583 105.311 152.775C99.331 155.566 92.8528 157.46 85.8761 158.456C78.8994 159.652 72.1221 159.951 65.5441 159.353C53.5841 158.755 43.0194 155.765 33.85 150.383C24.88 145.001 17.6044 138.124 12.0231 129.752C6.64106 121.38 3.05303 111.912 1.25903 101.347C-0.33564 90.5834 0.362044 79.6201 3.35204 68.4574C6.54138 56.4974 11.126 46.8298 17.106 39.4544C23.2853 31.8798 30.561 26.0991 38.933 22.1124ZM47.9031 62.1784C44.9131 64.9691 42.6207 68.4574 41.0261 72.6434C39.4314 76.8294 38.4347 81.2148 38.0361 85.7994C37.6374 90.1848 37.9364 94.6698 38.933 99.2544C40.129 103.64 41.9231 107.626 44.3151 111.214C46.3084 114.204 49.8964 116.696 55.079 118.689C60.2617 120.683 65.6438 121.879 71.2251 122.277C77.6038 122.676 83.185 120.982 87.969 117.194C92.753 113.208 96.341 108.324 98.733 102.543C101.324 96.7628 102.52 90.4838 102.321 83.7064C102.122 76.9291 100.328 70.7498 96.9391 65.1684C94.5471 61.1818 91.1584 58.2914 86.7731 56.4974C82.5871 54.5041 78.102 53.5074 73.318 53.5074C68.7333 53.3081 64.1487 54.0058 59.564 55.6004C54.9794 56.9958 51.0924 59.1884 47.9031 62.1784Z" fill="#58D22D"/>
<path fill-rule="evenodd" clip-rule="evenodd" d="M149.891 125.134C151.262 125.296 152.242 126.539 152.08 127.911C150.516 141.15 143.337 150.992 135.164 157.858C127.019 164.702 117.758 168.709 111.62 170.322C110.285 170.673 108.918 169.875 108.567 168.54C108.216 167.204 109.014 165.837 110.349 165.486C115.857 164.039 124.433 160.344 131.948 154.03C139.435 147.739 145.739 138.968 147.115 127.324C147.277 125.953 148.52 124.972 149.891 125.134Z" fill="#58D22D"/>
<path fill-rule="evenodd" clip-rule="evenodd" d="M1.82128 38.6326C0.49253 38.2574 -0.280492 36.8761 0.0947199 35.5473C3.7175 22.7179 12.3529 14.1246 21.5021 8.62604C30.6203 3.14606 40.3957 0.642203 46.7107 0.0125224C48.0846 -0.124472 49.3094 0.878237 49.4464 2.25214C49.5834 3.62604 48.5807 4.85086 47.2068 4.98785C41.5396 5.55294 32.4906 7.85546 24.0776 12.9116C15.6956 17.9492 8.09307 25.6218 4.90661 36.9061C4.5314 38.2349 3.15003 39.0078 1.82128 38.6326Z" fill="#58D22D"/>
</svg>
