<svg width="59" height="59" viewBox="0 0 59 59" fill="none" xmlns="http://www.w3.org/2000/svg">
    <rect x="0.572998" y="0.275391" width="58.2472" height="58.252" rx="29.1236" fill="#EFF1F5"/>
    <path d="M37.7809 27.8095C37.7431 24.1345 40.8411 22.3341 40.9922 22.2599C39.2354 19.7542 36.5153 19.4016 35.5519 19.383C33.2662 19.1417 31.0561 20.7194 29.8849 20.7194C28.6948 20.7194 26.9003 19.4016 24.9735 19.4387C22.48 19.4758 20.1565 20.8864 18.8909 23.0951C16.2652 27.5682 18.2297 34.1572 20.7421 37.7765C22.0077 39.5583 23.4812 41.5257 25.4079 41.4515C27.297 41.3772 27.9959 40.2636 30.2816 40.2636C32.5295 40.2636 33.2095 41.4515 35.1741 41.3958C37.1953 41.3586 38.4798 39.614 39.6888 37.8322C41.1433 35.8091 41.7289 33.8045 41.7478 33.6932C41.71 33.6746 37.8187 32.2083 37.7809 27.8095Z" fill="#353B41"/>
    <path d="M34.1643 17.1958C35.191 15.8964 35.8944 14.112 35.6853 12.3276C34.2024 12.3858 32.3582 13.375 31.2936 14.6551C30.343 15.78 29.5064 17.6225 29.7346 19.3487C31.3886 19.4651 33.0997 18.4759 34.1643 17.1958Z" fill="#353B41"/>
</svg>
