<svg width="23" height="42" viewBox="0 0 23 42" fill="none" xmlns="http://www.w3.org/2000/svg">
    <path d="M6.17922 23.2236H1.08136C0.257468 23.2236 0 22.9146 0 22.1422V15.9115C0 15.0876 0.308961 14.8301 1.08136 14.8301H6.17922V10.2987C6.17922 8.23896 6.53968 6.28221 7.56955 4.47994C8.65091 2.62617 10.1957 1.39032 12.1525 0.669415C13.4398 0.205974 14.7271 0 16.1175 0H21.1638C21.8847 0 22.1937 0.308961 22.1937 1.02987V6.90013C22.1937 7.62104 21.8847 7.93 21.1638 7.93C19.7735 7.93 18.3832 7.93 16.9929 7.9815C15.6025 7.9815 14.8816 8.65091 14.8816 10.0927C14.8301 11.6375 14.8816 13.1308 14.8816 14.7271H20.8549C21.6788 14.7271 21.9877 15.0361 21.9877 15.86V22.0907C21.9877 22.9146 21.7303 23.1721 20.8549 23.1721H14.8816V39.959C14.8816 40.8344 14.6242 41.1433 13.6973 41.1433H7.26059C6.48818 41.1433 6.17922 40.8344 6.17922 40.062V23.2236Z" fill="black"/>
</svg>