<svg width="42" height="42" viewBox="0 0 42 42" fill="none" xmlns="http://www.w3.org/2000/svg">
    <path d="M31.5859 0H10.7576C5.03029 0 0.343414 4.68688 0.343414 10.4141V31.2435C0.343414 36.9692 5.03029 41.6576 10.7576 41.6576H31.5859C37.3131 41.6576 42 36.9692 42 31.2435V10.4141C42 4.68688 37.3131 0 31.5859 0ZM38.5285 31.2435C38.5285 35.0707 35.4152 38.1861 31.5859 38.1861H10.7576C6.92986 38.1861 3.81497 35.0707 3.81497 31.2435V10.4141C3.81497 6.58593 6.92986 3.47155 10.7576 3.47155H31.5859C35.4152 3.47155 38.5285 6.58593 38.5285 10.4141V31.2435Z" fill="black"/>
    <path d="M32.4554 12.1499C33.8933 12.1499 35.0589 10.9843 35.0589 9.54641C35.0589 8.10851 33.8933 6.94287 32.4554 6.94287C31.0175 6.94287 29.8518 8.10851 29.8518 9.54641C29.8518 10.9843 31.0175 12.1499 32.4554 12.1499Z" fill="black"/>
    <path d="M21.1717 10.4141C15.4189 10.4141 10.7576 15.0759 10.7576 20.8282C10.7576 26.5784 15.4189 31.2434 21.1717 31.2434C26.9229 31.2434 31.5858 26.5784 31.5858 20.8282C31.5858 15.0759 26.9229 10.4141 21.1717 10.4141ZM21.1717 27.7718C17.3377 27.7718 14.2291 24.6632 14.2291 20.8282C14.2291 16.9932 17.3377 13.8856 21.1717 13.8856C25.0057 13.8856 28.1143 16.9932 28.1143 20.8282C28.1143 24.6632 25.0057 27.7718 21.1717 27.7718Z" fill="black"/>
</svg>
